<?xml version="1.0" encoding="utf-8"?>
<!-- Generator: Adobe Illustrator 25.0.0, SVG Export Plug-In . SVG Version: 6.00 Build 0)  -->
<svg version="1.1" id="Imagen4" xmlns="http://www.w3.org/2000/svg" xmlns:xlink="http://www.w3.org/1999/xlink" x="0px" y="0px"
	 viewBox="0 0 4283.8 3020.5" style="enable-background:new 0 0 4283.8 3020.5;" xml:space="preserve">
<style type="text/css">
	.st0{clip-path:url(#SVGID_2_);}
	.st1{fill:#242424;}
	.st2{clip-path:url(#SVGID_4_);fill:#DFC867;}
	.st3{clip-path:url(#SVGID_4_);fill:#A92E34;}
	.st4{clip-path:url(#SVGID_4_);fill:#9D2C31;}
	.st5{clip-path:url(#SVGID_4_);fill:#94282D;}
	.st6{clip-path:url(#SVGID_4_);fill:#39417C;}
	.st7{clip-path:url(#SVGID_4_);fill:#444E97;}
	.st8{clip-path:url(#SVGID_4_);fill:#F9ED89;}
	.st9{clip-path:url(#SVGID_4_);fill:#CE3F46;}
	.st10{clip-path:url(#SVGID_4_);fill:#C9373C;}
	.st11{clip-path:url(#SVGID_4_);fill:#E09CA9;}
	.st12{clip-path:url(#SVGID_4_);fill:#E9BFC6;}
	.st13{clip-path:url(#SVGID_4_);fill:#DD8C3F;}
	.st14{clip-path:url(#SVGID_4_);fill:#C46D31;}
	.st15{clip-path:url(#SVGID_4_);fill:#63A553;}
	.st16{clip-path:url(#SVGID_4_);fill:#5A954E;}
	.st17{clip-path:url(#SVGID_4_);fill:#5E93C4;}
	.st18{clip-path:url(#SVGID_4_);fill:#5989B6;}
	.st19{clip-path:url(#SVGID_4_);fill:#DEC255;}
	.st20{clip-path:url(#SVGID_4_);fill:#E5D97C;}
	.st21{clip-path:url(#SVGID_4_);fill:#DAADB3;}
	.st22{clip-path:url(#SVGID_4_);fill:#71B35F;}
</style>
<g>
	<defs>
		<rect id="SVGID_1_" width="4283.8" height="3019.5"/>
	</defs>
	<clipPath id="SVGID_2_">
		<use xlink:href="#SVGID_1_"  style="overflow:visible;"/>
	</clipPath>
	<g class="st0">
		<rect x="-538.4" y="-412.3" class="st1" width="6076.7" height="6076.7"/>
		<g>
			<defs>
				<rect id="SVGID_3_" x="-538.4" y="-412.3" width="6076.7" height="6076.7"/>
			</defs>
			<clipPath id="SVGID_4_">
				<use xlink:href="#SVGID_3_"  style="overflow:visible;"/>
			</clipPath>
			<path class="st2" d="M1703.5,1545.1c-25.4,20.1-60.4,23.4-87.9,40.4c-113.8,70.5-7.7,277.9-104.3,370.5
				c-54.6,52.3-154.2,43.5-196.4,106.3c-33.4,49.7-12.1,116.8-22.8,175.7c-20.8,114.2-152.4,169.1-267.4,185
				c-154.5,21.3-324.3,4.2-444.5-95.3c-12.2-10.1-24.2-21.6-29.4-36.6c-9.9-28.7,8.2-59.1,27-83c51.1-65,118-146.7,78.3-219.2
				c-27.4-50-97.2-68.9-116.3-122.7c-22.2-62.4,36.9-121.4,88.6-162.8c51.7-41.4,107.5-105.9,78.5-165.4
				c-11-22.5-32.4-38.2-45.3-59.6c-33.6-55.7,0.1-128.3,43.6-176.7c43.6-48.4,99.3-90.7,118.3-153c21.5-70.3-9.9-148.6,11.8-218.9
				c32.9-106.7,173.8-154.8,198.3-263.8c13.3-59.1-8.9-131.4,33.8-174.4c37.7-37.9,102.4-26.5,149.9-51.2
				c44.3-23,66.3-73,100.5-109.3c58.7-62.4,159.2-80.7,236.2-43c76.9,37.7,124.1,128.3,110.8,212.9c-7.8,49.9-34.3,100.2-19.4,148.5
				c24.5,79.1,148,111.5,142.1,194.1c-2.9,40.7-39.6,74.9-36.4,115.5c3.9,47.9,39.4,87.5,45.6,134c11.4,85.3-22.2,64.7-50.5,125.7
				C1706.3,1305.7,1782.2,1482.9,1703.5,1545.1"/>
			<path class="st3" d="M1428-211.1c-38.9,14.1-79.7,29.4-106.9,60.6c-27.2,31.2-34.9,83.7-5.1,112.5
				c40.9,39.6,135.4,28.7,135.8,85.6c0.3,44.5-61.5,53.8-105.9,55.7c-95.7,4.1-189.4,45.4-257.1,113.3
				c-24.3,24.4-46.6,58.2-36.3,91.1c24.9,78.6,159.9,17,222.5,70.8c7.6,51-32.3,96.6-74.3,126.5c-42,29.9-90.9,54.3-117.5,98.5
				c-26.6,44.1-13.8,116.6,36.8,126.5c14.9,2.9,30.2-0.1,45.1-3.1c49.4-10,98.7-19.9,148.1-29.9c17.9,54.5-9.7,113.4-43.5,159.9
				c-33.7,46.4-75.3,89.7-91,144.9c-15.7,55.2,8.2,127.6,64.5,139c113.9,23,157.4-164.6,259.9-186.4c26.5,38.4-3.2,99.8,28.9,133.6
				c19.7,20.7,55.5,18.7,78.3,1.5c88.6-67.3,78.9-240.5,73.1-336.7c20.8,1,41.5,2,62.3,3c-20.2,46.9,35.8,100.5,85.9,90.5
				c50.1-10,82.5-62.7,86.1-113.7c3.6-51-14.8-100.6-32.9-148.4c-12.9-34.2-26-71.2-16.6-106.5c9.4-35.3,52.3-63.5,83.4-44.2
				c8,4.9,14.2,12.3,21.7,17.9c43.2,32,109.4-12,116.8-65.2c7.4-53.2-23.8-103.8-57.8-145.5c-29.4-36-63.2-72.1-70.7-118
				c-7.5-45.8,28.3-101.4,73.9-93c23.9,4.4,45.1,24.8,68.9,20.2c20-3.9,32.4-24.3,37.6-44c25.3-95.1-57.2-181.8-131.8-245.9
				c-57.6-49.4-122.9-101.6-198.7-99.2c-32.3,1-63.4,12.2-93.8,23.2C1621.1-281.1,1524.6-246.1,1428-211.1"/>
			<path class="st4" d="M1447.1,717.9c13.1,49.5-50.9,101.1-26.8,146.3c19.5,36.5,79.6,24.6,103-9.5c23.4-34.2,23.7-78.4,31.7-119
				c8.8-44.7,27.9-87.3,55.4-123.5c28.3-19.2,55.3,27.6,87.2,39.8c37.4,14.4,76-26.5,79.4-66.4c3.4-39.9-14.7-78.1-23.5-117.2
				c-8.9-39.1-4.8-87.4,29.2-108.6c37.3-23.3,94.1-2.8,124.9-34.1c25.6-26,14.6-71.3-8.9-99.2c-23.5-27.9-56.6-46.4-80-74.4
				c-23.4-28-33.9-73.5-7.9-99.1c19.1-18.8,50.1-19.4,71-36.2c37.3-29.9,21.8-91.3-8.5-128.2c-46.9-57.3-122-90.4-195.9-86.4
				c-74,4-145,44.9-185.6,106.8c-13.9,21.2-23.8,50.9-7.8,70.6c12.5,15.5,34.9,17.2,54.5,20.9c55.4,10.5,110,59.1,100.7,114.7
				c-9.1,54.1-69,81.2-120.5,100.3c-51.5,19.1-110.8,49.5-115.5,104.2c-3.5,40.9,42,82,78.8,63.7c30.2,47.2-10.7,107.4-52.8,144.3
				c-42.1,36.9-92.9,81.5-83.6,136.7C1386.3,667.7,1436.7,678.3,1447.1,717.9"/>
			<path class="st5" d="M1552.5,390.2c10.1,25.7,34.7,45.7,37.2,73.2c3.2,35.3-30.3,61.4-57.4,84.3c-27.1,22.9-52.4,62.4-31.4,91
				c33.4,28,88.3,12.6,115.1-21.7c26.9-34.3,32-80.7,31.7-124.3c-0.2-25.3-1.4-52.4,12.2-73.7c11.8-18.4,32.8-29.2,45.7-46.8
				c34.3-47.1-2.5-116.9,20.4-170.4c5.6-13,14.4-24.3,20.8-36.9c42.4-84.1-35.9-194.1,9.3-276.8c-32.3-25.9-76.1-42.2-115.5-29.3
				c-39.4,12.9-66.2,63-44.8,98.4c8.7,14.5,23.4,24.2,37.1,34.1c43.8,31.7,86,78,81,131.9c-5.1,54.7-55.6,91.8-97.9,126.9
				C1573.9,285.1,1532.4,339,1552.5,390.2"/>
			<path class="st6" d="M2255.8,3567.5c-27.6,94.4,28.9,197.9,110.8,252.3c81.9,54.4,183.5,69.3,281.7,75.4
				c79.6,4.9,162.2,4.4,235.2-27.8c73-32.1,134-103,132-182.7c-1.6-64.3-41.6-132.9-9.3-188.5c15.9-27.2,45.5-42.8,72.5-59
				c115.5-68.9,216.9-201.6,175-329.4c-12.8-39.1-38.5-75.2-39.1-116.4c-1.4-96.3,126.7-146.3,149-240
				c34.2-143.8-195.2-246.4-169.7-392c15-85.3,116.3-146.7,103.9-232.4c-10.6-72.9-97.5-109.1-127.5-176.4
				c-45.5-102,54.8-231.4-2.2-327.4c-26.5-0.4-52.9-0.8-79.4-1.2c-23.5,46.4-37,97.8-39.2,149.8c-70.1,16.7-169.4-40.6-202.1,23.6
				c-41.6,81.6,140.6,136,120.5,225.3c-8.6,38.2-53.7,57.7-92.8,54.9c-39.1-2.8-75.1-21.2-112.8-32c-89.1-25.6-214.6,25.1-203,117.1
				c8.1,63.4,79.2,108.4,77.8,172.3c-1.6,74.6-94.4,107-168.6,115c-74.2,8-166.7,26-184.7,98.5c-21,84.2,83.6,156.7,75.1,243
				c-10.4,106.6-163.5,121.7-236,200.6c-45,49-54.4,127.2-22.4,185.5c53.4,97.1,204.1,139.7,203.7,250.6
				C2304.2,3476.3,2269.9,3519.4,2255.8,3567.5"/>
			<path class="st7" d="M2548.9,2752.9c-0.2,45.8-53.5,68.4-93.8,90.3c-53.8,29.2-100.6,88.4-84.6,147.5
				c14.7,54.1,77.9,92.4,72.5,148.2c-6.5,67.8-109.7,96.9-110.3,165c-0.6,63.6,87.2,90.9,109.2,150.6
				c17.9,48.3-12.6,103.4,0.9,153.1c10.1,37,43.2,63.9,78.8,78.1c81.1,32.4,182,5.8,236.5-62.4c54.5-68.2,58.3-172.4,8.8-244.4
				c127.8-10.8,215.8-172.2,155.7-285.4c-8.7-16.3-19.8-31.9-23.2-50c-14.7-78.8,112.9-113.3,128.7-191.8
				c15.3-75.8-82-137.7-72.7-214.4c5-40.6,39.1-72,49.5-111.6c8-30.4,1.2-62.9-10.5-92c-14.9-37.1-39.1-72.2-74.6-90.6
				c-35.5-18.4-83.5-15.9-111,13c-12.9,13.6-20.3,31.4-31.4,46.5c-42,57.6-123.1,64.5-191.5,84.6c-68.4,20.1-141.7,85.1-113.6,150.7
				C2491,2681,2549,2705.8,2548.9,2752.9"/>
			<path class="st6" d="M2616.2,2849c-38,11.5-64.4,52.9-58.8,92.2c8,56.1,70.9,104.7,49.9,157.3c-13.7,34.2-56.8,46.9-77.1,77.7
				c-42.4,64.1,36.4,155.8,1,224c-11.4,21.9-33.4,37.9-40.4,61.5c-12.9,43.7,34.4,84.5,79.7,89.5c59,6.5,120.3-27.7,145.8-81.4
				c25.5-53.6,13.2-122.8-29.2-164.4c81.1-41.2,155.6-124.9,135.6-213.6c-10.7-47.4-46.5-97.9-20.9-139.1
				c11.4-18.4,32.2-28.3,48.1-42.9c49.6-45.9,32.2-142-30.3-167.6c11.9-38.9,22.4-85.9-4.4-116.6c-37-42.5-105.6-15.8-161.6-21.4
				c-27.6,10.7-34.5,48.2-25.8,76.5c8.7,28.3,28,52.4,37.8,80.4c9.8,28,6.2,65.2-20.1,79C2636.5,2844.8,2626,2846,2616.2,2849"/>
			<path class="st2" d="M1905.8,2530.9c-10,7.9-19.9,17.2-23.2,29.5c-6.9,25.7,20.2,50.3,46.8,51.5c26.6,1.2,51.1-13.2,73.7-27.2
				c-60.6,23.1-111.3,71.1-137.5,130.4c-3.8,8.6-7,19.4-1.4,27c5.5,7.6,16.6,7.9,25.9,6.3c49.6-8.3,87.9-46.9,122.4-83.4
				c-40.5,34.6-63.2,89.1-59.1,142.3c25.9,22.8,68.8,13.5,93.2-10.7c24.5-24.3,35.1-58.9,44.3-92.1c-21.9,28.7-24.1,71-5.3,101.7
				c39.1,12.6,85.8-4.1,107.9-38.8c22.1-34.7,17.8-84-10.1-114.2c-15.1,32.3,32.1,67.3,63.5,50.4c31.4-16.9,37.1-62.6,20.3-94.1
				c-16.8-31.4-49.3-51-81.5-66.3c31.7,16.8,68.2,24.5,104,21.7c-7.8-64.6-61.8-120.8-126.1-131.3c16.9,23.1,43.4,38.8,71.7,42.7
				c14.7-43-20.1-88.7-60.7-109.1c-79.8-40.2-187.4-12.1-237.4,61.9c-3.3,25,19.6,47.4,44.3,52.6c24.7,5.3,50.1-1.9,74.3-9.1
				C2001.6,2476.6,1948.6,2497.2,1905.8,2530.9"/>
			<path class="st8" d="M2020.9,2522.4c-13,12.9-37.3-2.5-38.1-20.7c-0.9-18.2,12.8-33.8,26.9-45.4c40.9-33.4,103.6-50,145.4-17.8
				c11.9,9.2,21.6,24.7,16.1,38.7c-5,12.8-20.4,18.2-34.2,18.6c-13.7,0.5-27.8-2.3-41.1,0.9c24.3,8.4,50.5,18.4,63.5,40.6
				c13,22.2,0.9,58.8-24.8,58.3c-11.5-0.2-21.5-7.4-30.6-14.4c12.6,19.9,20.4,42.8,22.4,66.3c0.9,10.8-0.2,23.5-9.2,29.7
				c-8.5,5.8-20.6,2.8-28.2-4.1c-7.6-6.9-11.7-16.8-15.5-26.3c-2.3,14.8-5,30.3-14.5,41.9c-9.5,11.6-28.2,17-39.6,7.3
				c-6.4-5.5-9-14.1-10.3-22.5c-2.7-17.4-1.2-35.5,4.5-52.3c1.7,8.5-0.3,17.7-5.3,24.8c-16,11.7-40.5-3.6-44-23.1
				c-3.5-19.5,7.3-38.7,20.1-53.8C1997.3,2554,2012.6,2540.4,2020.9,2522.4"/>
			<path class="st9" d="M-265.8,3642c70.9,9.1,143.2,7.2,213.4-5.8c-97.4,93.8-194.9,187.5-292.3,281.3
				c77.2-18.8,154.4-37.7,231.6-56.5c-69.7,75.9-131.6,158.8-184.5,247.2c165.8-64.5,325.7-144.4,476.8-238.3l3.1,145.9
				c70.4-65.8,129.6-143.4,174.5-228.6c11.9,28.2,23.8,56.3,35.6,84.5c15.6-0.4,31.2-0.9,46.8-1.3c59.3-143,118.6-286.1,177.9-429.1
				c10.4-25,20.4-54.9,5.7-77.7c-6.8-10.5-17.8-17.4-28.8-23.5c-117-64.6-259.6-67.5-390.3-39.6c-130.7,28-253.2,84.3-377.3,133.7
				c68.2,21.1,138.3,36.2,209.1,44.8L-265.8,3642z"/>
			<path class="st10" d="M220.1,3698c-9.9,44.1-19.8,88.1-29.6,132.2c78-123.8,135.1-260.8,167.9-403.4
				c-71-25.2-149.3,10.7-209.4,56.3c-54.1,41-101.8,90.6-140.6,146.3c45-5.1,89.5-14.9,132.5-29.1
				c-35.1,80.9-158.7,111.8-162.6,199.9l155.1-81.4c-32.1,66.4-64.2,132.8-96.3,199.2C107.9,3853.5,169.6,3779.2,220.1,3698"/>
			<path class="st11" d="M857.7,3097.3c-11.1-25.2-26.1-51.2-21.9-78.4c8.8-56.3,85.4-68.4,124.4-110
				c89.2-95.1-60.7-262.9,5.5-375.3c29.8-50.6,96.6-73.3,119-127.5c21-50.6-4.6-110.5,12.4-162.5c16.2-49.5,68.2-83.1,77.3-134.4
				c8.5-47.6-25.2-95.1-68.6-116.5c-43.4-21.4-93.9-22-142.1-18.2c-125.3,9.8-248.4,46-358.9,105.8c-25.1,13.6-51.1,29.9-63,55.9
				c-35.7,77.8,77,154.6,65.7,239.4c-14.8,110.7-214.1,120.6-221,232.1c-4.4,72.3,83.3,132.7,63.3,202.3
				c-15.4,53.5-82.2,69.3-124.9,105c-60.6,50.7-66.1,154.2-11.1,210.9c-108,28.8-231.5,94.6-233.2,206.4
				c-1.3,85.1,72.3,152.6,147.8,191.7c147.2,76.3,334,87.5,476,2C846.5,3440.4,924.6,3249,857.7,3097.3"/>
			<path class="st12" d="M537,3401c236.8-47.9,426.5-270.2,436.6-511.6c2.2-52.5-3.8-107-30.2-152.4c-14.9-25.7-35.9-47.4-58.3-67
				c-72.8-63.5-177.4-106.4-266-67.9c-29.4,12.8-57.7,40.3-52.6,71.9c4.9,30.7,37.1,47.4,64,63c26.9,15.5,55.1,43.5,45.2,72.9
				c-8.3,24.6-38.2,33.4-64,36c-35.8,3.7-72.6,2.5-107,12.9c-34.5,10.4-67.6,36.1-73.1,71.7c-9.7,62,65.6,118.5,45.1,177.8
				c-20.2,58.7-108.1,53.6-153.7,95.8c-48.2,44.7-28.8,132.1,24.3,170.8C400.4,3413.7,472.6,3414,537,3401"/>
			<path class="st13" d="M3509,4105.3c-78.6,1.7-157.2,3.5-235.8,5.2c-42.5,0.9-92.5,6.1-113.8,42.9c-9.6,16.6-11.1,36.7-19.3,54.1
				c-27.9,59.5-111.9,58.7-176.4,45.9c-64.5-12.8-145.3-22.3-182.9,31.5c-34.1,48.8-9.7,123.4-47.5,169.3
				c-55.9,68-207.2,27.6-222.4,114.3c-5.1,29.2,12,60.1,2.6,88.2c-9.2,27.7-39.5,41.1-63.4,57.8c-52.8,37-82.4,104.7-73.6,168.6
				c8.8,63.9,55.6,121.1,116.5,142.4c26.8,9.4,59.5,15.1,72.1,40.5c9.8,19.7,2.8,43.1,1.3,65c-6.7,94.8,118.8,168.5,198.3,116.5
				c37.2-24.3,60.9-67.2,101.3-85.8c80.8-37.1,188.9,39.1,259.6-14.9c46.3-35.3,45.8-105.9,80.7-152.5
				c73.3-97.6,269.5-57,307.2-173.1c13.2-40.6-1.4-86.1,10.6-127.1c20.8-71.1,108.1-97.8,153.1-156.7c38.4-50.2,41.8-118,43.7-181.2
				c2.5-83.1-2.7-181.5-72.6-226.5C3608.2,4104.1,3557,4104.3,3509,4105.3"/>
			<path class="st14" d="M3162.8,4788.9c25.4-16.6,58.2-15,87.2-23.7c91.1-27.5,121.2-143.8,198.9-198.7
				c22.4-15.8,48.9-26.5,68-46.2c42.6-43.8,32.7-121.3-9.4-165.7c-42-44.3-106.6-60.4-167.7-60.5c-65-0.2-131.7,16.4-182.9,56.5
				c-22.2,17.4-41.1,39-64.5,54.7c-39.7,26.8-88.7,34.8-134.1,49.9c-45.5,15.1-92.3,42.1-107.2,87.6c-8.2,24.8-6.5,54.2-23.6,74
				c-20.1,23.2-55.4,22.1-85.3,28.7c-83.2,18.6-133.5,106.4-147.2,190.6c-7.8,48-5.3,102.5,27.8,138.2
				c33.7,36.4,88.3,42.5,137.9,43.9c30.5,0.9,63.2,0.2,88.1-17.3c18.4-13,30.5-33.8,49.7-45.6c48.8-30.1,118.3,10.5,167.8-18.4
				C3118.1,4906.5,3112.6,4821.7,3162.8,4788.9"/>
			<path class="st15" d="M2167.6,4421.6c-1.1,34.1-2.1,68.2-3.2,102.3c-76.3,63.8-190.1,43.9-285.5,15.6
				c-95.4-28.3-202.1-60.8-290-14.4c-59.2,31.2-96.3,92.4-122.4,154.1c-16.1,38.1-29.3,81.4-14.9,120.2
				c16.8,45.4,65.5,70,111.9,83.7c113.1,33.4,237.7,26.5,346.4-19.3c43.1-18.1,85.6-42.6,132.3-43.2c46.7-0.6,98.4,35.4,92.9,81.8
				c-3.6,30.7-30.4,53.9-58.7,66.3c-66.7,29.4-143.6,15.5-216.1,23.2c-72.5,7.7-154.3,56.3-149.6,129
				c4.7,72.8,92.3,110.3,165.2,108.6c120.4-2.8,232-65.4,351.7-77.7c138.5-14.2,276.3,39.9,415.4,33.1
				c83.3-4.1,182.5-52.8,179-136.2c-3.4-82.9-104.1-123.1-187-126.7c-82.9-3.6-177,5.1-237.2-51.9l0.1-59.8
				c75.2-60.4,184.2-34.9,279.3-18.9c95.1,16,217.8,3.6,251.5-86.8c26.3-70.5-24-151.2-91.8-183.9c-67.8-32.6-146.8-29-221.6-21.3
				c-42.1,4.3-86.2,9.3-125.7-5.9c-39.5-15.3-71.8-58.7-59-99.1c8.5-26.7,33.9-44.8,60.4-54.1c79.5-27.8,165.4,8.1,249.1,16.9
				c83.7,8.8,191.4-37,184.5-121c-6-74.1-95.2-108.1-169.2-115.6c-138.4-14-280,5.6-409.4,56.7c-0.2-44.1-0.5-88.2-0.7-132.2
				c-27.1,0.1-54.2,0.3-81.3,0.4c-0.3,37.6-6.3,75.1-17.5,110.9c-128.1-29.9-261.5-36.5-391.9-19.4c-53.3,7-108.4,19-150.3,52.7
				c-41.9,33.7-66.1,94.8-42.7,143.2c28.9,59.7,107.8,70.5,174,73.5C1946.3,4411.7,2057,4416.7,2167.6,4421.6"/>
			<path class="st16" d="M1872.2,4652c-33.8,0.2-69.7,0.9-98,19.5c-28.3,18.5-42.8,61.9-20.1,86.9c17.5,19.2,47.4,19.3,73.2,15.7
				c72.7-10.4,143.2-38.9,216.6-38c73.5,0.8,155.4,44.9,163.1,117.9c7.3,69.5-57.1,128.6-124.7,146.3c-23.8,6.2-49.1,9.2-70.2,21.8
				c-21.1,12.7-36.7,39.5-26.7,62c60.2,44.3,138.3-18.7,210.2-39c102-28.9,209.4,34.1,314.8,22.4c5.9-32-24.2-60.1-55.2-70.2
				c-30.9-10.1-64.8-9.4-95-21.4c-68.9-27.3-96.3-126.3-51.2-185.2c43.5-56.7,125.6-63.5,196.9-59.5c71.4,4,149.1,12.4,208.6-27.2
				c17.9-50.9-40-99-93.6-104.7c-53.6-5.8-108.5,11.4-161.4,0.7c-76.1-15.4-133.3-95.1-123.6-172.2c9.8-77.1,85-140,162.6-135.9
				c28,1.5,56.6,10.4,83.4,2.3c26.8-8.1,46.4-45.5,25.5-64.1c-32.9-49.3-105.1-53.3-161.7-36c-56.7,17.4-108.7,50.6-167.4,58.5
				c-105.4,14.3-208.3-55.5-314-43.4c-17.4,2-35.5,6.7-47.9,19.2c-30.3,30.4-5.1,86.6,34.1,104c39.2,17.4,84.3,10.2,127.2,8.8
				c42.9-1.3,92,7.1,115.1,43.3c10.7,16.8,14,37.2,17.1,56.9c10.6,68.5,14.3,153.7-44.3,190.8c-28.3,17.9-63.8,18.6-97.2,18.8
				C2003.1,4651.4,1937.6,4651.7,1872.2,4652"/>
			<path class="st6" d="M754.2,5490.1c15.3-126,48-249.8,97.1-366.9c26.9,127.6,71.4,251.5,131.7,367.1
				c-18-122.4-36.1-244.8-54.1-367.2c60.8,65.8,131.4,122.6,208.6,168c-31.6-109.9-84.6-213.7-155.1-303.8
				c67.1,63.5,152.9,106.9,243.8,123.5c-69.4-112.5-144.7-221.4-225.4-326.1c78.7,29.2,157.4,58.4,236.1,87.5
				c-107.8-96.6-211.4-198-310.3-303.7c76.6,56.5,165.6,96,258.8,115c-101.3-96.5-202.6-193-304-289.5
				c73.3,11.2,143.9,39.9,204.1,83.2c-38.6-108.5-117.2-202.2-217.3-259.1c47.6,13.2,95.2,26.3,142.9,39.5
				c-83.6-68.8-167.2-137.7-250.8-206.5c-87,121.7-177,241.2-270,358.5c57.2-76.4,137.8-135.2,228-166.4
				c-94.6,136.8-189.3,273.6-283.9,410.4c86-83.1,180.6-157.3,281.7-221.2c-85.6,148.9-164.6,301.6-237,457.3
				c57.7-106.8,139.4-200.6,237.4-272.3c-74.3,178.3-148.6,356.6-223,534.9c78.7-111.7,157.3-223.4,236-335.1
				c-36.8,174.7-78.9,348.3-126.3,520.4c42-117.7,96.5-230.8,162.5-336.9C754,5163.5,750.1,5326.9,754.2,5490.1"/>
			<path class="st7" d="M937.6,4633.8c-11.6-64.6-43.3-125.4-89.7-171.9c27.8,4.8,54.3,16.7,76.4,34.4
				c-23.2-77.7-63.6-150.3-117.5-210.9c-18,64.9-36.1,129.9-54.1,194.8c9.3-25.3,28.1-47,52-59.6c-18.1,101.6-36.1,203.2-54.2,304.7
				c22.1-40.6,44.2-81.1,66.3-121.7c0,132.6,0,265.2,0,397.8c40.8-53.5,66.9-118.1,74.6-184.9c19.3,71.3,49.5,139.6,89.3,201.7
				c15.1-100.4-4.5-205.8-54.8-294c14.7,34.7,43.3,63.2,78,77.7c-33.3-79.2-82.8-151.5-144.6-211.2
				C882.2,4610,909,4624.7,937.6,4633.8"/>
			<path class="st17" d="M4517.2-295.4c37.5,87,75,174,112.4,261.1c71.9-134.6,174-253,296.6-343.8c29.4,114.1,41,232.9,34.3,350.5
				c82.9-78.1,178.4-142.9,281.6-191.1c41.1,65.2,37.2,150.9,8.9,222.6c-28.3,71.7-78.1,132.5-127.1,192
				c67.5,3.9,134.9,7.9,202.4,11.8c20.5,1.2,43.5,3.6,56.3,19.7c24.1,30.1-8.9,71.8-39.2,95.7c-70.6,55.8-141.1,111.6-211.7,167.3
				c84.5-21.9,175.5,68.7,154.1,153.3c-96.3,36.4-186.6,88.4-266.4,153.3c49.9,3.2,102.2,7.2,144.1,34.4
				c41.9,27.2,67.8,86,42.1,128.8c-14.2,23.6-40.1,37.2-64.9,49.2c-82,39.7-166,75.1-251.7,106c-1.9,30.6,43.3,32.9,72.7,41.4
				c66.3,19.1,73.3,120,26.8,170.8c-46.6,50.9-120.6,63.8-189,72.4c-68.4,8.6-142.1,18.1-192.7,65c37.5,8,76.5,16.6,106.5,40.4
				c30,23.9,47.8,67.8,29.8,101.7c-17.1,32.3-57.5,42.8-93.3,49.9c-125.5,24.7-251.6,46.7-378.1,66c30.7,6.3,63.1,13.4,86.1,34.7
				c23,21.4,30.9,62.1,7.9,83.4c-11.3,10.4-27.2,14-42.3,16.9c-128.7,24.5-261.5,27-391,7.3c-55.4-8.4-111.5-20.9-167-13
				c-55.5,7.9-111.8,41.8-126.5,95.9c-19.5-25.9-39-51.8-58.4-77.7c104.5-54.4,99.1-202.8,84-319.7c-21-163.3-31.4-327.9-31.1-492.5
				c53,40.9,106,81.8,159,122.7c-38.8-256-30-519.1,25.6-772c12.7-57.5,34.4-122.3,89.1-143.8c58.6,53.4,109,115.9,148.8,184.5
				c13.5-164.6,68-325.7,157.2-464.8c34,72.2,75.5,140.8,123.5,204.5C4371,19.8,4432.1-144.6,4517.2-295.4"/>
			<path class="st18" d="M4145.2,657.7c0.5-32.8,1.5-67.4,18.4-95.6c16.8-28.2,55.3-46.3,83.6-29.7c26,15.3,31.1,49.6,41,78.1
				c9.9,28.5,39.4,58.1,66,44c16.3-8.6,21.5-29.3,23.8-47.6c15.3-121.3-13.5-263.5,71.9-351.1c11.5-11.8,25.6-22.3,42-24.3
				c39.9-4.9,66.1,38.7,85.9,73.8c19.7,35.1,61.6,71.8,94.8,49.2c0.1-145.1,53.9-289.5,148.7-399.2c51.5,95.1,72.3,206.6,58.3,313.9
				c56.7-21.3,132.6-37.4,167.7,12c39.3,55.4-17.6,129.1-75.8,164.1c-58.2,35.1-131.1,72.4-135.9,140.2
				c64.9,12.9,143.7,40,151.8,105.6c7.5,60.8-54.4,107.2-112.6,126c-58.3,18.7-124.5,26.5-167.2,70.4c-6.1,6.2-11.7,13.4-13.4,21.9
				c-8.3,41.6,60.3,40.5,98.5,58.9c52.5,25.3,43.4,109.6-1,147.4c-44.5,37.7-106.5,44.3-163.4,56.7c-57,12.5-119,38.8-138.7,93.7
				c49.4,15.2,110.5,49.3,98.4,99.6c-8.5,35.2-48.8,50.7-83.7,60.7c-98.6,28.3-197.3,56.6-295.9,84.8
				c-0.5,63.3,137.2,86.2,101.7,138.6c-10.8,15.9-32.8,18.3-51.9,19.3c-99.5,4.9-199,9.7-298.4,14.6c-28.8,1.4-58.7,2.7-85.6-7.8
				c-51.9-20.1-79.2-78.3-86-133.5c-6.8-55.2,1.5-111.4-4.4-166.7c40,24.6,80,49.3,120,73.9c17.7-98.1-7.1-198.1-18.2-297.1
				c-11-99-4.6-209.2,62.2-283.1c34.1,92.7,103.4,171.9,190.6,218.2C4140.5,944.3,4142.9,801,4145.2,657.7"/>
			<path class="st11" d="M2706.1,4135c201.7,44.6,425.1-28.8,561.1-184.3c1,24.5,1.9,49,2.9,73.5c48.6-51.1,89.6-109.5,121.1-172.6
				c-2.7,43.1,16.9,87,50.7,113.9c34.8-67.1,58.4-140,69.6-214.7l41.3,71.1c10.2-77.3,13.8-155.4,10.6-233.3
				c6.7,27.7,22.3,53.2,43.9,71.7c7.9-81,10-162.5,6.4-243.8c21.1,23.7,42.2,47.4,63.3,71.1c-4.1-101.1-8.2-202.2-12.3-303.3
				c7.8,32.8,33.3,60.9,65.2,71.8c-12-77.6-23.9-155.3-35.9-232.9c7.8,31.8,31.8,59.1,62.4,71c-0.1-72.5-14.5-145-42.1-212
				c0,35.7,27.9,69.4,63,76.1c-46.7-109.5-54.5-235.2-21.5-349.6c-16.8,1-34-6.3-44.9-19.2c-0.6,62.9-77,91.9-138.6,104.3
				c-101.6,20.4-203.2,40.8-304.7,61.2c51.5,18.3,103,36.6,154.5,54.9c-85.8,14.8-167.4,53-233.8,109.2
				c40.4,5.9,80.9,11.8,121.4,17.7c-84.6,30.1-169.2,60.2-253.7,90.4c40.9,8.7,81.8,17.3,122.6,26
				c-84.9,21.9-164.6,63.5-231.1,120.8c44.4,4.5,88.8,9.1,133.1,13.6c-86.9,37.9-165.6,94.4-229.2,164.7
				c41.5,0.9,82.9,1.9,124.4,2.8c-80.3,23.8-152.7,73.7-203.7,140.2c40.4-6.9,80.9-13.8,121.3-20.7
				c-60.9,61-121.8,121.9-182.7,182.8c47.8-9.5,95.7-19,143.5-28.6c-58.3,48.7-104.1,112.1-132,182.7c44.6-1.5,88.9-13.3,128.4-34.1
				C2765.2,3876.4,2713.4,4004.3,2706.1,4135"/>
			<path class="st12" d="M3066.2,3840.9c-14.3,57.5-28.5,114.9-42.8,172.4c70-75.5,129.2-161,175.3-253c0.9,30.8,1.8,61.6,2.6,92.4
				c44-88.2,79.9-180.6,107-275.4c0.2,49.4,10,98.7,28.6,144.4c36.4-106.1,62.6-215.7,78.3-326.7c11.8,47.4,23.7,94.8,35.5,142.3
				c9.4-101.7,18.7-203.4,28.1-305c10.7,33.7,21.4,67.4,32.1,101.1c0.2-95,0.5-189.9,0.7-284.9c0,34,15,67.7,40.1,90.6
				c5.1-91.6-1.1-183.8-18.4-273.9c-63.7,19.8-127.5,39.6-191.2,59.4c37.9,0.7,75.8,1.3,113.7,2c-72.9,55.7-149.2,106.9-228.2,153.5
				c38,1.4,76,2.8,114,4.2c-67.5,47.2-135.1,94.4-202.6,141.6c34-3.5,68-7,102-10.5c-77.8,61.5-155.7,122.9-233.5,184.4
				c43.1-6.6,86.2-13.3,129.3-19.9c-67.8,73.4-135.6,146.8-203.4,220.1c52.4-20.6,104.7-41.2,157.1-61.7c-59.5,81-119,162-178.5,243
				c48.9-15.4,95-39.8,135.2-71.7c-55.4,80.4-102.1,166.9-138.8,257.3C2968.9,3936.6,3023.2,3893.4,3066.2,3840.9"/>
			<path class="st17" d="M2428.1,1458.3c24-21.4,61.3-13,91.6-2.2c491,175.2,836.5,693.7,809.4,1214.3
				c-2.7,52.1-8.8,104.2-7.6,156.3c0.8,34.1,4.6,68.4-0.8,102.1c-79.9-125.1-225.7-187.4-351-267
				c-376.6-239.2-602.8-696.7-564.1-1141.2C2407.5,1498,2411.2,1473.4,2428.1,1458.3"/>
			<path class="st18" d="M3076.9,2397.9c37,12.9,76.8,17.7,115.7,13.8c-40.2-88.1-100.6-166.9-175.2-228.7
				c39.6,1.5,79.3,3,118.9,4.6c-74.7-80.7-159.6-151.9-252-211.5c35.8-9.6,74.1-9.3,109.7,0.7c-96.2-84.6-200.5-160.1-311-224.9
				c36,2.7,72.4,1.1,108-4.9c-59.5-54.2-119-108.4-178.5-162.6c-35.3-32.1-90.8-64.8-125.4-31.9c-17.2,144.6-6.7,292.4,31,433.1
				c22.7-43.5,45.4-87,68.1-130.5c7.6,101.8,15.1,203.7,22.7,305.5c13-46.7,32.4-91.6,57.5-133c11,102.8,35.4,204.2,72.3,300.8
				c16-49.1,32-98.2,48.1-147.3l98.4,302.6c-3.2-52.3,6.6-105.3,28.3-152.9c43.3,126.4,113.6,243.4,204.8,341
				C3114,2579.4,3100.1,2487.5,3076.9,2397.9"/>
			<path class="st15" d="M5121,2628.1c44.6,167.7-107.8,335.5-81,506.9c17.4,111.1,108.9,212,84.3,321.7
				c-18.6,82.9-98.7,138.8-127.2,218.8c-51.2,143.5,75.3,320.4-9.8,446.7c-52.1,77.3-162,95.6-220.4,168.3
				c-87.8,109.2-34.5,306.6-154.4,379c-78.8,47.5-192.6,8.3-263.8,66.5c-46.8,38.2-57.1,104.4-85.6,157.7
				c-47.5,88.9-155,141.5-254.4,124.4c-48.2-8.3-96.6-31.2-143.8-18.7c-41.2,10.9-70.5,45.8-103.9,72.3
				c-109,86.4-282.6,75.7-380.2-23.4l-206.2,243.4c-20.3-97.5,21.9-205.2,103-263c-81.4-54.9-172.4-127.7-167-225.8
				c2.3-41.9,23-83.1,14.3-124.1c-5.4-25.6-21.7-47.3-33.7-70.6c-55.8-107.9-6.1-257.2,103.2-310.2c48.9-23.7,108.5-31.6,143.7-72.9
				c101.1-118.6-116.2-326.3-12-442.2c43.2-48,119.6-46.8,172.8-83.6c84.1-58.2,79.5-181.5,67.9-283.1c-11.6-101.6-9.8-227,79-277.8
				c32.7-18.7,71.5-22.9,106.6-36.6c92.9-36.4,147.4-135.5,165.8-233.5c8.2-43.4,11.5-89.7,36.6-126
				c62.4-90.2,208.7-61.2,296.3-127.1c59-44.4,80.1-123,127.6-179.5c108.9-129.2,314.3-105.3,471.9-44.5
				C4967,2435.9,5089,2507.7,5121,2628.1"/>
			<path class="st16" d="M4319.3,2940.5c41.2-34,53.7-90.9,81.1-136.8c62.9-105.7,218.5-142.3,321.9-75.7
				c103.5,66.6,134.5,223.4,64.3,324.4c-26.2,37.8-65,70.3-72.1,115.7c-16.5,105.9,148,190.2,107.1,289.4
				c-35.7,86.8-189.2,66.2-225.3,152.8c-40.1,96.2,112.8,209.3,50.8,293.1c-34.3,46.4-110.6,38.7-150.1,80.8
				c-62.6,66.5,19.6,176.8-5,264.8c-24.7,88.5-138,110.1-229.6,117.2c-33.2,2.6-70.8,7.8-89.9,35.1c-11.6,16.6-13.6,37.9-13.9,58.2
				c-0.7,56,8.9,112.4,0.1,167.7c-8.8,55.3-42.3,112.2-96.8,125.3c-66,15.9-158.9-27-189.9,33.4c-12.2,23.7-5.4,52.5-9.5,78.9
				c-7.4,48.5-52.8,84.9-100.9,94.2c-48.2,9.3-98-3.7-143.1-23.1c-27.5-11.8-56.3-26.4-85.8-21.6c-20.6,3.3-38.5,15.7-57.4,24.5
				c-80.5,37.6-187.3,2.6-229.8-75.3c-42.6-77.9-14.4-186.7,60.7-234.1c61.8-39,152.4-44.7,183.7-110.8
				c41.5-87.5-62.5-203.4-4.7-281.1c40-53.7,131.9-45.7,169.5-101.1c53.4-78.7-56.9-182.2-31.6-273.9
				c23.9-86.7,150.1-105.5,185.7-188c35.5-82.4-37.1-187.8,11.4-263.4c41.8-65.1,147.1-62.2,189.9-126.7
				c46.3-69.8-9.2-174.6,38.3-243.6C4104.6,2959.3,4243.2,3003.3,4319.3,2940.5"/>
			<path class="st15" d="M4230.3,3380.1c40.5-58.7,13.8-142,42.3-207.4c35.9-82.7,161.8-102,227.3-40.1c65.5,61.9,60,179-4.4,242.1
				c-16.1,15.8-35.4,28.9-47.4,48c-60.4,95.7,104.2,222.9,46.6,320.3c-26.3,44.5-87.2,55.5-121.3,94.3
				c-77.4,88.1,27.8,244.6-42.8,338.3c-41.3,54.8-127.9,63.3-162.1,122.7c-33.4,57.9-3.1,142.2-48.9,190.8c-51,54-154,18-206.2,70.9
				c-21.9,22.3-28.7,54.8-40.6,83.7c-34.2,82.6-120.4,140.9-209.8,141.7c-38.2,0.3-82.6-14.5-94-51
				c-21.4-68.5,84.9-106.3,110.2-173.5c27.1-71.7-47.3-152.5-20.8-224.4c30.9-83.9,170.9-85.3,196.8-170.8
				c13.8-45.6-12.9-92.9-16.1-140.4c-3.7-53.9,26.3-108.6,73.6-134.6c27.6-15.2,60.1-21.1,85.6-39.6c104.1-75.6,4.1-263.4,87-361.7
				C4124.3,3442.7,4195.6,3430.4,4230.3,3380.1"/>
			<path class="st13" d="M3576.8,1011c-153.9-3.5-305.9-64.4-419.6-168.2c237.3,12.5,474.4,30.1,710.9,52.9
				c-143.4-29.3-278.7-97-388.1-194.1c203.3-36.5,415.4-22.9,612.4,39.3c-72.1-48.4-144.1-96.7-216.2-145.1
				c-37.4-25.1-75.1-84-35.7-105.9L4492,650.1c-104.2-53.9-199.4-125.1-280.4-209.9c156.5-14,317.6,34.3,440.7,132
				c-62.3-33.9-106.8-98.8-115.8-169.2c165.3,124.7,382.4,178.4,586.8,144.9c-211.6,122.9-244.6,448-465.4,553.5
				c31-104.2,62-208.5,93-312.7c-110.3,191.3-254.2,363.1-423.1,505.3c38.4-115,85.3-227.1,140.2-335.2
				c-127.1,150.9-273.2,285.9-433.6,400.7c63.4-107.1,126.8-214.2,190.2-321.3c-266.3,247.4-575.1,449-908.7,593.2
				c116.4-126.3,232.9-252.7,349.3-379c-211.1,135.2-454.1,220.2-703.5,246c158.2-154.3,352.5-271.4,562.8-339.2
				c-208.7,46.7-424.8,59.8-637.6,38.7C3102.1,1092.3,3337.7,1028.4,3576.8,1011"/>
			<path class="st14" d="M4064,794.6c88.7-0.9,177.2-11.4,263.6-31.1c-30.3-17.5-60.6-35-90.9-52.6c94.5,4.1,189.1,8.2,283.6,12.2
				c-4.1-22.9-14.7-44.6-30.3-61.9c33.9,0,67.8-0.1,101.7-0.1c-5.5-18-16.2-40.1-16.4-58.3c84.7-2.9,178.1,19.7,260.3,38.2
				c18,4,41.9,7.9,56.8,19.6c19,14.9,6.9,19.3-4.9,33.7c-13.7,16.7-22.4,38.3-32.5,57.3c-6.6,12.4-35.1,49.5-33.3,62.8
				c-6.2-45.7-12.4-91.4-18.6-137.2c-129.2,54.2-247.2,135-344.3,236l-14.5-88c-72.1,45.4-139.9,97.6-202.1,155.8
				c-1.8-19.3-3.5-38.5-5.3-57.8c-50.3-3.8-94.6,30.5-133.2,63c-100.6,84.4-201.2,168.9-301.8,253.3c16.3-35.9,26.5-74.5,30.3-113.7
				c-70.8,31.9-141.5,63.7-212.3,95.6c19.8-28.1,39.6-56.3,59.4-84.4c-27-13.7-53.9-27.3-80.9-41c61.2-14.7,122.4-29.4,183.7-44.2
				c-40.8-11.3-81.6-22.7-122.4-34c90.3-11.2,178.7-36.9,261-75.7c-27.3-17.4-50.7-40.7-68.3-67.9c88.3-1,176.6-8.5,263.8-22.6
				C4105.7,827.7,4087,807.4,4064,794.6"/>
			<path class="st6" d="M1130,1295.2c206-152.8,442.3-264.7,691-327.3c-126.1,290.2-377.9,523.2-677,626.3
				c251.2-55.6,511.4-70.3,767.3-43.2c-273.5,174.3-593.6,274.8-917.6,288.1c218.2,79.3,441.4,144.8,667.8,196.1
				c-211.2,203.3-545.3,181.5-836.3,146.2c221.8,95.8,428.1,227.7,608.1,388.8c-252.4,56.1-520.1,42-765.3-40.3
				c-98.6-33.1-195.9-77.5-299.8-81.4c-103.9-3.9-219.5,46.3-251.5,145.3c-21.1-26.2-42.1-52.4-63.2-78.6
				c49-36.6,97.9-73.1,146.9-109.7C100.2,1927.4,1.9,1418.1,174.2,960.8c60.5,344.5,121.1,688.9,181.6,1033.4
				c-82.4-498.7-30.4-1019,149-1491.6c89.6,400.6,90.4,820.7,2.4,1221.7c-4.4-560.9,126-1122.4,377.2-1623.9
				c40,427.1,19.4,859.8-60.8,1281.1C995.7,916,1239,476.8,1542.4,84C1484.2,509.2,1343.4,922.9,1130,1295.2"/>
			<path class="st7" d="M807,1259.2c-3.5,111.4-7.1,222.7-10.6,334.1c64.6-99.1,136.3-193.7,214.3-282.6
				c-43.9,113.3-92.9,224.6-146.9,333.5c86.3-23.5,176.3-33.3,265.7-29c-99.8,72.5-202.5,141-307.8,205.4
				c81.9,30.2,163.9,60.5,245.8,90.7c-111.2,50.4-222.4,100.8-333.6,151.2c69.1,44.1,140.1,85.1,212.8,122.9
				c-110.7,8.5-220.4,30.2-326,64.5c52.2,47.5,110,88.9,171.9,122.9c-183-12-365.4-33.4-546.2-63.9c-56.6-172.7-82.9-355.3-77.4-537
				c33.6,100,98.4,189.2,183.1,252c31.6-179.3,48.1-361.3,49.3-543.4c16.7,113.6,72.9,221,156.7,299.5
				c17.4-168,41.5-335.4,72.3-501.5c1.4,110.1,18.3,219.9,50,325.3C739.7,1496.3,782.7,1379.6,807,1259.2"/>
			<path class="st2" d="M2961.2,1876.6c29.9,49,75.9,87.4,100.8,139.1c48.6,100.8,15.8,245.1,107.1,309.8
				c82.5,58.5,220.1,9.2,282.6,88.7c49.1,62.4,11.5,157.8,43.4,230.5c64.6,147.4,322.8,73.2,418.8,202.5
				c43.5,58.6,39,143.5,85.1,200.1c121,148.7,412.6-50.2,540.2,93c36.1,40.5,47.7,100.6,90.1,134.5c91.3,73,234.1-30.5,340.8,17.3
				c44.6,20,75.2,64,120.3,83.2c45,19.1,115.5-14.8,98-60.6c-128.4-14.6-177.1-174.5-185.8-303.5c-8.7-129-24.3-285.9-142.1-339.1
				c-30.1-13.6-64.2-18.3-92-36.1c-67-42.9-69.6-137.3-73.1-216.8c-3.5-79.5-32.5-177.3-111.2-189.3c-44.3-6.7-88.8,18.4-133,11.5
				c-151.4-23.9-67.2-317.7-208.3-377.7c-30.5-13-65.1-10.6-97.4-17.8c-117.7-26-169.4-159.6-220.4-268.8
				c-51-109.2-163-225.1-273.2-176.3c-53.8,23.8-91.1,83.5-149.6,89.9c-36.7,4-71.5-14.6-105.8-28.2
				c-122.6-48.6-272.9-31.9-371.8,55.4C2925.8,1605.2,2892.5,1764,2961.2,1876.6"/>
			<path class="st19" d="M3987.7,2662.9c-103.5-80.2-282.3-48.6-347.9-161.9c-25.7-44.3-24.9-99.8-48.6-145.2
				c-62.8-120-261.5-117-316-240.9c-12-27.2-15-57.3-23-85.9c-19.9-70.9-69.3-129.6-98.9-197c-29.6-67.4-33.3-158.1,24.7-203.5
				c114.4-89.6,281.2,98.7,415.5,43.1c35-14.5,63.4-44.9,100.7-51.4c74.9-13.1,127.6,72.8,144.2,147c16.6,74.2,28.2,162.6,95,198.9
				c55.7,30.3,132.2,11.5,180.2,52.9c82.9,71.4-5.7,235.5,77.6,306.4c51.2,43.5,136.7,20.3,188.4,63.2
				c65.7,54.5,35.5,179.6,107.4,225.5c35.1,22.4,80.7,15.6,121.2,25.2c56.4,13.5,102.5,62.7,112.2,119.9
				c8.4,49.8-7.5,106.3,21.3,147.8c12.2,17.7,30.9,29.6,47.5,43.5c65.9,55,98.5,147.1,81.9,231.3c-99.5,3.2-136-129.6-211.9-194.1
				c-132.2-112.4-360.7,3.6-498.4-101.9C4085.5,2828.4,4062.6,2720.9,3987.7,2662.9"/>
			<path class="st17" d="M2021.5,477.4c13.1,66.9-33.9,131.8-89.3,171.5c-55.4,39.7-121.1,63.9-174.3,106.5
				c-50.5,40.4-88.6,114.2-53.1,168.2c35,53.3,113.2,49.1,176.2,38.7c57.7,57.5,7.8,153.4-38.7,220.3
				c-46.5,66.9-80.2,175.7-9.1,215.6c74.8,42.1,148.7-51.9,221.5-97.4c14.9-9.3,31.6-16.8,49.1-16.3c61.6,2.1,74.6,88.7,61.7,148.9
				c-12.9,60.2-23.9,140.2,31.2,167.7c55.8,28,114.9-31.8,144.3-86.9c29.4-55.1,68.2-122.7,130.5-118.7
				c70.6,4.5,97.9,95.9,157.4,134.1c58.4,37.6,148.2,8.3,173.2-56.6c51.3-133.1-148.6-249.4-133.1-391.2
				c60.7-8.6,132.5-25.7,153.3-83.3c21.7-60.1-27.6-121.2-76.3-162.6c-48.7-41.4-105.9-88.3-105.3-152.2
				c73.8,7.3,171.1-0.5,190.1-72.2c13.7-51.5-27.4-102.5-73.6-129.1c-46.2-26.7-100.1-39.8-142.1-72.7
				c-42-32.8-67.7-97.9-34.2-139.4c27.6,37.2,95.2,13.7,107.3-31c12.1-44.7-16.7-91.6-54.2-118.7c-37.5-27.1-83.1-40.3-124.9-60.2
				c-41.8-19.9-82.9-50.3-95.7-94.8C2467-19,2521-3.7,2575,11.6c28.2-67.9-52.3-132.2-124.5-146.4c-72.1-14.2-156.3-12-205.2-66.8
				c-0.9-33.1-1.8-66.1-2.7-99.2c-32.8,2.4-65.6,4.8-98.4,7.1c43.6,42.1,29.3,118.2-9.3,164.9c-38.6,46.7-94.7,74.9-141.5,113.3
				c-46.8,38.5-86.9,97-73.3,156.1c59.3-8.9,118.6-17.9,177.9-26.8c15.2,72.6-76.1,114.6-144,144.8
				c-81.6,36.2-153.3,94.2-205.8,166.4c-9.3,12.8-18.3,27-18.2,42.8c0.3,38.5,49.6,54.6,88.1,54.8
				C1888.2,522.8,1958.2,507.3,2021.5,477.4"/>
			<path class="st18" d="M1946.3,857.2c-7.8,85.7,170.8,94.4,160.2,179.7c-3.6,28.5-29,48.1-47.7,69.9
				c-18.7,21.8-30.2,58.3-8.1,76.7c46.9,39,96.9-82.7,155.2-64.8c47.2,14.5,30.8,99,75.2,120.7c34.6,16.8,70.9-19.5,89.7-53.1
				c18.8-33.6,43.7-74.5,82-71.3c6.3,60.4,82.5,101.2,136.3,73c24.3-57.7,19.3-126.8-13.1-180.4c-15.9-26.3-37.9-49.2-48-78.2
				c-10-29-2.2-68,26.6-78.6c21.8-8,45.7,3.2,68.9,3.2c56.8,0,90-84.7,48.3-123.3c-31.7-29.4-89-29.8-106.4-69.4
				c-22.7-51.6,46.4-93.6,100.9-108.1c-0.1-42.8-42.7-73.1-83.7-85.3c-41-12.2-86-14.6-121.9-37.8c-35.9-23.2-55.4-79.9-23.3-108.1
				c22.8-20,59.5-15.7,82.9-34.9c36.3-29.8,13.3-92.5-26.3-117.6c-39.6-25.1-89.1-29.3-131-50.5c-41.9-21.2-75.9-74.9-49.8-113.9
				c34.7-7.3,60-44.9,53.5-79.8c-85.5-19.6-196.1-29.2-240.3,46.5c-9.6,16.4-14.2,38-4.2,54.2c14,22.6,46.5,22.6,69.3,36.2
				c39,23.3,39.9,82.5,16.2,121.1c-23.8,38.6-64.2,63.2-99.7,91.4c-35.5,28.2-69.3,66.2-69.7,111.5c62.2-17,128.7,33.6,144.6,96.1
				c15.8,62.5-9.1,129.4-48.7,180.3c-39.6,50.9-92.5,89.4-142.6,130C1970.8,810.1,1948.7,830.4,1946.3,857.2"/>
			<path class="st15" d="M591.7,2951.9c9.8,37,19.6,73.9,29.3,110.9c64.6,19.9,93.2-77.3,96.1-144.8c5.7-130.1,46.2-258.6,116-368.6
				c60.5-95.2,163.2-155,166.1,0.8c0.5,25.3,5.6,53.3,25.6,68.8c24.6,19.1,63.5,9.7,82.8-14.8c68.8-87.8,19.4-262.3,71-368.4
				c14.7-30.2,33.6-59.7,62-77.5c28.4-17.8,68.2-20.8,94.2,0.5c61,50-1.9,171.4,60.9,219.2c20.3,15.4,50.4,16.5,71.7,2.5
				c55.9-36.6,40.1-149,67.9-203.5c43.7-85.6,182.9-88.6,241.8-12.6c58.9,76,34.5,196.6-40.1,257.2c73.7-4.1,151-7.6,217.6,24.2
				c66.6,31.8,116.6,111.5,89.3,180.1c-37.8,95-199,134.7-175.2,234.1c10.3,42.9,54.7,69.5,70.9,110.5
				c35,88.3-73.1,165.2-165.1,188.7c-92.1,23.5-207.5,52.3-226.1,145.5c-10.1,50.6,15,101.1,20.7,152.4
				c10.7,97.1-51.3,190.6-132,245.6c-80.7,55-178,78.9-273,101.8c61.2,79.4,3.4,202.7-85.1,249.8c-88.5,47-193.9,42.9-293.9,49.3
				c-212.4,13.6-421.2,80.8-601.6,193.7c-33.7-38.1,21.7-88.5,63.7-117.1c141.7-96.7,193.1-283.3,193.6-454.8
				c0.5-171.5-39-341.7-32.6-513C412.5,3094,473.4,2947.5,591.7,2951.9"/>
			<path class="st16" d="M1033.2,3707.4c-21.7,44.6-84.3,43.6-133.5,37.8c-49.2-5.8-113.6-0.1-127.7,47.4
				c-10.7,35.8,16.5,74.2,8.2,110.6c-76.6,31.2-163.6,36.3-243.4,14.3c91.5-144.9,39.1-332.9,48.7-504
				c5.2-92.5,55.9-204.9,148.4-200.8c0.7,35.7,45.9,57.8,79.6,46c33.8-11.8,54.9-45.9,65-80.2c21.5-72.8,5.3-151.9,21.2-226.1
				c15.9-74.2,91-148.3,160.1-116.7c16.1,7.4,29.7,19.8,46.5,25.6c48.4,16.6,97.5-29.6,113.2-78.3c15.7-48.7,12.1-102.3,29.4-150.4
				c17.3-48.2,70.6-91.4,117-69.9c13.2,44.6,26.3,89.3,39.5,133.9c34.6-40.5,99-53.2,144.5-25.6c45.5,27.6,63.1,94.4,34.1,139
				c-30.5,46.9-102.2,67.7-108.1,123.4c-5.7,53.7,57.5,95.4,54.8,149.3c-5.7,113.3-245,67.8-258.4,180.5
				c-6.4,54.3,53.5,100.4,45.8,154.5c-8.3,57.7-81.9,75.8-140.2,78.4c-58.3,2.6-131.3,14.1-147.1,70.2
				C1017.7,3612.3,1054,3664.4,1033.2,3707.4"/>
			<path class="st15" d="M3884.1,2002.3c0.1,19.1,4.1,39.3,16.9,53.5c9.1,10.2,21.9,16.4,34.4,22c192.6,85.8,422.1,84.4,613.6-3.8
				c191.5-88.2,341.7-261.7,401.7-463.8c3-10.1,5.8-20.8,3-31c-4.6-16.8-22.3-25.9-38.4-32.4c-150.8-60-322.6-55.6-477.6-7.3
				c-155,48.2-294.6,137.8-418.2,243.1C3951.6,1840.2,3883.4,1913.4,3884.1,2002.3"/>
			<path class="st13" d="M849.3,225.8c204.8,10.9,421.5,19.2,601.8-78.5C1302.6-23.8,1047.2-39.3,820.8-42
				c178.4,23.5,365-22.4,512-126.1c-274.5-22-549.1-44-823.7-66c-67.1-5.4-95.9-29.4-115.4-88.8c-102.9,4.5-23.9,87.9-42.6,96.4
				C49.3-89.3-144.3,205.9-321.3,486.4c278.6-79.5,498.8-288,707.1-489.4C55.7,257.1-186.6,626.8-293.4,1033.3
				c193.5-10.5,347.5-159.1,482.3-298.4c93.4-96.6,186.8-193.2,280.2-289.9C172.8,681.4-24.9,1037.7-68.7,1414.2
				c266.4-144.8,502.3-345.7,687.7-585.6c-152.7,242.4-246.1,521.8-269.9,807.3c235.3-187.6,396.4-465.7,441.9-763.1
				c-7.2,203,58.6,407.9,182.8,568.7c70.9-213,61-451.8-27.2-658.2c94.8,144,270.3,230.7,442.2,218.5
				c-62.7-215.3-211.9-404.1-406.8-515c148.9,94.6,336.6,125.8,508.1,84.4C1335.8,374.9,1098,246.8,849.3,225.8"/>
			<path class="st14" d="M661.2,586.3L619.8,1077c43.9-116.1,87.8-232.1,131.7-348.2c41.6,79.3,83.1,158.6,124.7,237.8
				c7.2-105.6,4.9-211.9-6.8-317.1c97.5,45,197.7,84.1,299.8,117.1c-63.5-131.3-175.6-238.5-309.6-296.1c108,8.9,216,17.7,324,26.6
				c-93.7-156.4-350-108-479.9-235.9c179.8-21.2,355.7-75.4,516.3-159c-161.1-33.1-325.4-50.3-489.8-51.4
				C813.8-6.6,902.5-56.3,995-97.7c-131.2-11.1-262.6-18.6-394.2-22.5C490.3-123.4,375.1-123,276-74C185-29,117.8,52.2,35.6,111.8
				C144.2,112.1,252.8,92,354,52.7C186.5,231.9,57.3,446.8-22.5,678.8C75.7,570,201.3,486.1,339.3,437.1
				C245,611.4,167.4,795,108.2,984.2C304.1,868.8,489.5,735.4,661.2,586.3"/>
			<path class="st2" d="M167.6,2998.4c26.1,18.6-18.8,92.9-33.5,106.6c-29.5,27.4-68.1,42.3-105.7,56.6
				c45.6-14.6,93.8-21.2,141.7-19.3c16.3,38.1-10.1,83.6-46.7,103c-36.6,19.4-80.1,19.4-121.5,19c24.4-5.3,49.8-10.7,74.2-5.2
				c24.4,5.5,47.6,25,48.7,50c1.3,27.6-23.3,49.3-47.8,62.1c-36.3,19-77.5,28.3-118.5,26.8c25.8-4.3,53.1-8.5,77.4,1.2
				c24.3,9.7,42.9,38.6,31.8,62.3c-9.9,21.2-36.6,27.5-59.9,30.3c-50.4,6.1-101.4,7.8-152.1,5c-14.2,38.3-31.2,75.6-50.7,111.4
				c-14.4-3.9-28.7-7.8-43.1-11.7c7.9-34.8,15.4-73-1-104.6c-9.8-18.8-26.8-32.5-41-48.2c-32.1-35.4-50.3-80.9-67.9-125.4
				c-2.9-7.3-5.8-15.6-2.8-22.9c4.5-10.8,18.7-12.8,30.5-13c38.1-0.6,82.6,3.9,102.7,36.3c-13.7-22.1-33.2-40.5-46.5-63.5
				c-13.5-23.5-24.4-48.6-32.4-74.5c-8-25.9-13.2-52.7-15.3-79.8c-1-13.5-1.3-27.1-0.8-40.7c0.3-9.1-3.1-27.1,3.8-33.8
				c3.5-3.3,8.3-4.9,13.1-5.5c3.6-0.4,7.5-0.2,10.7,1.4c9.8,4.9,12.3,21.9,17.6,30.8c8,13.4,16.7,26.3,25.9,38.9
				c9.2,12.6,18.9,24.8,29.1,36.5c7.4,8.5,29,23.7,32.1,33.9c-29.7-96.2-59.6-198.2-35.4-295.9c3.1-12.4,10.1-27.1,22.9-27.3
				c8-0.1,14.7,5.8,20.2,11.5c38.7,40.5,63,94.4,68,150.1c7-104.3,20.3-221.2,101.8-286.7c26.7,78.4,25.3,166.1-3.8,243.6
				c17.7-44.7,55.5-80.9,100.9-96.7c10-3.5,22-5.8,30.6,0.4c11.9,8.5,9.8,26.6,5.3,40.5c-9.5,29.3-24.3,56.8-43.2,81.1
				c-9.7,12.5-20.5,24.1-32.3,34.7c-5.6,5-11.5,9.7-17.3,14.3c0.1-0.1-14.2,10.5-9.2,9.2c22.7-5.8,44.6-15,64.7-27.1
				c7.4-4.5,14.6-9.4,22.5-13c12.2-5.7,25.9-8.1,39.4-7.1C160.3,2994.7,164.5,2996.2,167.6,2998.4"/>
			<path class="st20" d="M-191.2,3229.6c2.7-5.9,7.5-10.8,13.5-13.2c9.2-3.8,20.5-1.5,27.5,5.5c3.9,3.9,6.4,8.9,10.2,12.8
				c3.8,3.9,9.7,6.7,14.7,4.5c15.9-7.2-3.8-66.5-4.7-78.9c-0.9-13.3,0.5-29,11.7-36.3c7.1-4.6,17.1-4.2,23.8,1
				c2.4,1.9,4.8,4.4,7.9,4.2c5-0.3,6.2-7.2,5.8-12.2c-1.8-22.2-6.6-47.7-1.5-69.4c2.1-9,4.2-17.9,6.3-26.9c1.3-5.5,2.7-11.2,5.6-16
				c3-4.8,8-8.8,13.6-9.1c8.3-0.4,15.2,7.3,16.9,15.5c1.7,8.2-0.6,16.6-2.8,24.6l-4.5,16.2c-0.5,1.7-0.9,3.4-0.7,5.1
				c0.6,6.3,9.4,8.5,15,5.7c5.7-2.8,9.3-8.3,13.9-12.6c2.9-2.8,8.4-4.7,10.4-1.2c1.7,11.6-2.2,32.6-5.8,44.2
				c-4.6,14.4-12.8,31.5-25.5,39.7c10.1,1.9,21.7-4,30.8,3.6c9.2,7.6,6,23.4-2.9,31.5c-8.8,8.1-21.1,10.9-32.3,15
				c-3,1.1-6.2,2.4-8.1,5c-2,2.6-2.2,6.7,0.3,8.7c2,1.6,4.9,1.4,7.4,1.2c12.1-0.7,24.9,3.5,32.5,13c7.6,9.4,8.6,24.3,0.5,33.4
				c-9.6,10.8-50,7.5-52.8,17.9c-1.4,5.3,11.4,17.6,13,23.5c2.2,8.3,1.4,17.9-4.1,24.7c-8.2,10-21.5,15.6-34.3,15.9
				c-10.6,0.3-19.8-4.2-24.8,9.1c4.1,3.5,9.1,3.7,14.4,3c5.2-0.6,10.4-1.9,15.5-0.5c5,1.3,9.6,6.4,8,11.4c-14,5.5-28,11-42,16.5
				c-3.8,1.5-7.8,3.1-10.4,6.3c-2.6,3.2-3,8.5,0.2,11.1c5.5-1.6,11.4-3.3,16.9-1.8c5.5,1.5,10.3,7.4,8.4,12.8
				c-1.1,3.1-4,5.2-6.8,6.9c-14.7,9.5-30.3,17.5-46.5,23.9c-9.6,3.8-31.4,15.3-41.8,11.6c-19.3-6.9-22.1-54.6-26.2-71.4
				c-1.7-6.7-3.3-13.5-3.4-20.5c-0.3-12.5,5.6-28.4,19.5-30.9c15.5-2.7,33.4,25.8,33.4-5.8c0-8-2.6-15.8-5.1-23.4
				c-3.1-9.5-6.3-19-9.4-28.5c-1.8-5.3-3.5-10.7-3.5-16.3C-193.4,3236.1-192.6,3232.7-191.2,3229.6"/>
			<path class="st9" d="M-231.3,2447.2c-11.2-17-22.4-34.1-33.6-51.1l67.1-47c-58.9-56.8-94.7-136.8-97.8-218.6
				c12.8-32.3,60.8-33.5,89.6-14c28.7,19.5,46.1,51.6,71.1,75.7c25,24.1,66.7,39,93.6,17.1c-11.8-65.2-62.1-115.7-111.9-159.4
				c-49.8-43.6-103.8-87.7-127.5-149.5c-23.8-61.8-2.3-146.7,61-166.1c82.3-25.3,148.4,68.1,183.8,146.6
				C-0.7,1959.2,64.3,2053,147,2028.8c31-81.4-23.8-170.5-87.6-229.7c-63.9-59.2-142-109-178.1-188.3
				c-36.1-79.3,2.7-199.5,89.8-201.3c41.9-0.9,79.3,25.9,108.4,56c82.4,85.5,130.4,210.7,238.8,259.3c36.1,16.2,86,18.5,108.3-14.2
				c29.5-43.2-15-98.6-58.8-127c-43.8-28.4-98-63.9-92.4-115.8c5.2-47.6,63.9-73.9,110.5-62.8c46.6,11.1,82.5,47.3,115.2,82.3
				c32.7,35.1,67.1,72.1,113,86.1c6.5-31.1,26.8-59.1,54.3-74.8c27.5,34.4,30.5,86.4,7.3,123.8c57.2,16.7,115.8,34.1,163.4,69.8
				c47.6,35.8,82.7,94.5,73.5,153.4c-9.2,58.9-75,107.4-130.2,85c-34.7-14.1-55.1-49-79.7-77.3c-24.6-28.2-64.2-52.4-97.8-35.8
				c-37.7,18.6-36.7,77.1-8.9,108.5c27.8,31.4,71.1,43.1,111.5,54.5c64.7,18.3,130.9,41.4,179.2,88.2c48.3,46.8,73.8,123.5,43,183.4
				c-45.4,88.5-177.7,86.8-263.5,36.6c-85.9-50.2-149.8-132.9-237.9-179.1c-27.9-14.6-60.1-25.5-90.5-17.3
				c-30.4,8.1-55.2,41.9-43.9,71.2c5.5,14.2,17.8,24.6,30.5,33c45.1,29.9,99.5,43,145.2,72c45.6,29,83,84.9,63.8,135.5
				c-24.8,65.5-120.9,67.8-181.5,32.5c-60.5-35.3-106.1-94.3-170.5-121.8c-64.5-27.5-162.1,2.6-161.3,72.7
				c0.7,59.4,70.9,119.9,34.2,166.5c-25.6,32.5-80.2,16.7-107.9-14.2c-27.6-30.8-42.1-72.4-72.7-100.2
				C-157,2411.8-216.7,2408.5-231.3,2447.2"/>
			<path class="st10" d="M552.6,1739.4c30.9,42.7,18.7,110.2-25.2,139.3c-17.2,11.4-37.7,17.2-54.4,29.4
				c-24.2,17.6-38.1,48.3-35.3,78.1c-44.4,5.7-88,18-129,36.3c-9.7,4.3-19.9,9.6-24.7,19.1c-4.3,8.6-3.3,18.8-6.1,28
				c-10.4,34.4-62.5,33.9-84.4,62.4c-16.3,21.2-12.3,54.2-31.5,72.7c-28,26.8-80.5,1.9-110.4,26.7c-14.9,12.3-19.3,33.6-32.9,47.3
				c-13.7,13.8-34.3,17.6-51.6,26.7c-17.3,9-32.6,29.8-23.3,46.9c-17.2,0-34.4,0.1-51.6,0.1c-10.5-17.5-13.7-39.2-8.5-59
				c33.1,12.9,73.5,3.8,97.9-21.9c24.4-25.7,31.3-66.6,16.6-98.9c-6.5-14.4-16.7-31.7-7.3-44.3c5.5-7.3,15.6-9.3,24.7-9.5
				c29.1-0.7,56.9,10.9,85.5,15.8c28.7,5,62.5,1.1,79.6-22.5c28.4-39.4-9.3-103,21.8-140.3c29.8-35.9,93.1-12.6,130.7-40.3
				c42.5-31.3,35.3-114.7,87-125.5c22.8-4.8,49.9,8.3,68-6.2c12.8-10.2,13.8-28.7,18-44.5c4.2-15.8,18.6-32.9,33.8-27
				C545.4,1730.4,549.3,1734.8,552.6,1739.4"/>
			<path class="st11" d="M4947.8,5121.4c-40.2,9.8-41.3,75.9-5.6,96.9c35.7,20.9,84,2.6,110-29.6c26-32.2,35.2-74.4,43.6-115
				c-1.4,33.7-2.9,67.5-4.3,101.2c68.2-2.1,129-63.9,130-132.1c28,3.3,56.1,6.7,84.1,10c3.1-17.6,6.1-35.2,9.2-52.8
				c-77.2-25.8-106.4-116.8-132.8-193.8c-26.4-77-80.2-164.4-161.4-158.7c-49.2,65.7-53.1,161.9-9.4,231.4
				c-11.1-153.6-108.7-298.1-247-365.8c-50.7,103.7-48.5,231.7,5.7,333.7c-33.7-137.5-118.6-261.7-234.5-343
				c-65.5,97.2-63.2,235.3,5.4,330.3c-19.9-141.3-100.6-273.1-217.5-355c-17.7-12.4-39.2-24.3-60-18.2c-27.5,8-37.4,41.4-40.2,69.9
				c-9.6,97.6,12.6,198.1,62.5,282.5c-24-163.3-165-302.1-328.6-323.6c5.7,109.4,46.1,216.8,114,302.8
				c-61.9-85.8-168.3-137.5-274-133.2c-18.8,0.8-39.6,4.4-50.9,19.4c-17.8,23.6-0.6,57.2,18.7,79.6
				c44.1,51.1,100.6,91.4,163.3,116.5c-82.4-31.5-171.7-44.7-259.6-38.3c-14.4,1-30.3,3.5-39.2,14.8c-21.1,26.8,17.9,59.7,50,71.5
				c66.6,24.5,133.2,49.1,199.9,73.6c-107.1,1.2-213.5,38.6-297.7,104.8c96.5,49.2,211.1,62,316.1,35.1
				c-82.4,16.4-160.2,55.6-222.4,112.2c-5.6,50.4,71.8,56.6,120.2,41.3c74.4-23.6,148.8-47.2,223.2-70.8
				c-33,16.3-67.3,33.8-88.4,63.9c-21,30.1-23,77,5.7,99.9c34.5,27.5,85.3,5.4,121.8-19.4c58.8-39.8,113.6-85.4,163.5-135.9
				c-51.6,53.3-88.9,120.3-107.1,192.2c124.5-3,244.4-80.1,298.8-192.1c-49,40.1-79.5,101.9-81.4,165.1
				c120.9-5.8,235.2-85.5,282.3-196.9c-34.7,50.9-58.8,109-70.2,169.6c107.8-27.5,200.7-107.9,243.3-210.6
				c-21.7,42.1-31.7,90.1-28.8,137.3C4846.8,5278.4,4924.7,5208.5,4947.8,5121.4"/>
			<path class="st12" d="M4962,4798.5l-1.9,106.6c-25.5-76-85.1-139.9-159.1-170.6c-23.1,37.2-28,85-12.9,126.1
				c-43.1-95.2-131.4-168.7-232.8-193.9c-18,57.2-3.6,123.3,36.4,167.9c-25.9-103.6-132.7-180.6-239.2-172.5
				c-23.7,63.7,16.1,143.4,81.3,162.7c-59.3-70.8-150.5-113.8-242.9-114.3c-18.4,28.7-5.2,69.1,20.3,91.7
				c25.5,22.7,59.9,31.9,92.9,40.5c-69.7-45.3-155.7-64.9-238.2-54.4c-10.7,1.4-22.8,4.2-27.9,13.7c-6.3,11.6,1.7,25.7,10.4,35.6
				c35.3,39.5,90,60.8,142.7,55.3c-44.3,12.8-91.5-2-137.7-1.2c-46.1,0.7-100.5,29.8-97.5,75.8c78.9,25.4,162.8,35.2,245.4,28.6
				c-51-7.5-103.9-1.8-152,16.6c-27.3,10.4-57.3,32.7-52.2,61.5c5.2,29,41,39.3,70.4,42c95.9,8.7,193.3,0,286.1-25.5
				c-41.4-7.6-98.9-5.2-107.6,36c-5.2,24.7,14.2,49.4,37.8,58.1c23.6,8.7,50,5.2,74.5-0.4c75.8-17.3,147.3-53.1,206.5-103.5
				c-36.1,9.3-62.6,46.9-59.3,84c95.3,2.4,190.7-42.3,249.7-117.2c-18.4-9.6-41.4,13.4-36.5,33.6c4.9,20.2,28.2,31.6,48.9,29.7
				c20.7-1.9,39.1-13.8,55.7-26.3c37.3-28.1,70.8-61.3,99.2-98.4c-14.9,24.5,14.9,56.5,43.5,54.8c28.6-1.6,51.7-23.2,71.8-43.7
				c20.1-20.5,42.5-42.5,71.1-45.2C5100.5,4876.5,5037.2,4810.3,4962,4798.5"/>
			<path class="st6" d="M4840,5185c-13.1,24.5-47-7.8-53.4-34.8c-18.1-76-36.1-152-54.2-228c-203.5-0.1-406.3-72.1-564.4-200.3
				c32.2-39.6,95.1-20.9,142.1-0.8c47,20.1,113.7,32.2,138.7-12.3c-142.3-79.8-280.3-167.2-413.4-261.5
				c-32.3-22.9-65.8-48.1-80.7-84.8c-14.9-36.7-1.9-87.5,35.9-99.3c34-10.6,67.9,13.2,97.1,33.6c92.2,64.5,199.8,106.9,311.3,122.6
				c11.4-52.2-44.7-91.8-91.9-116.8c-138-73.1-274.4-161.2-359.9-291.8c-14-21.4-26.9-45.3-26.1-70.8c2-60,80.1-91.3,137.3-72.9
				c57.2,18.3,98.5,66.7,142.7,107.3c44.3,40.6,102.7,76.9,161.1,62.6c-6-155.7-181.8-244.6-251.2-384
				c-34.1-68.6-32.4-167.3,34.1-205.3c85.8-49,184.9,43.4,226,133.2c41.1,89.8,77.8,200.9,172.9,227.6
				c-29.4-107.1-39.7-219.5-30.5-330.2c2.2-26.9,6.2-55.2,22.6-76.6c40.3-52.7,132.2-28.4,166.8,28.2
				c34.6,56.7,29.2,128.1,22.6,194.1c-10.1,101.9-20.2,203.8-30.3,305.7c35.4,4.2,58.9-37.5,61.3-73c2.4-35.6-5.2-73.9,11.9-105.1
				c36.7-66.8,151.5-29.2,175.2,43.3c23.6,72.5-9.7,149.8-39.1,220.2c-29.4,70.4-54.7,153.4-17.5,220
				c55.8-71.3,100-151.6,130.4-236.8c87.8-7.3,128.7,115.9,98.3,198.6c-30.4,82.7-98.7,149.4-118.2,235.3c-5,22-4.9,49.1,13.2,62.6
				c55.1,41.4,99.6-109.5,165.3-88.7c45.6,8.7,65.6,67.9,50.4,111.7c-15.2,43.8-53.5,74.8-90.1,103.4
				c-119.3,93.3-238.6,186.6-357.8,280C4783.8,4998.1,4804.6,5094.4,4840,5185"/>
			<path class="st7" d="M4700.3,4026.9c26.7,16.7,24,56.3,14.3,86.3c-9.6,30-22.7,64-6.9,91.3c18.8,32.5,68.7,36.4,86.5,69.5
				c17.2,32-5.1,69.9-24.5,100.6c-19.4,30.7-35.1,74.5-9.3,100c11.1,11,27.1,14.9,41.1,21.9c31.4,15.7,53.3,48.9,55.3,84
				c-21.1,10.8-43.1,22.2-57,41.4c-14,19.2-17.1,48.5-0.5,65.4c12,12.2,33.4,18.8,34.3,35.9c-50.3,12-99.6,27.8-147.4,47.4
				c-41-7.5-80.2-24.7-113.5-49.8c-7.6-5.7-15.2-12.3-18.1-21.3c-7.4-22.7,16.9-41.5,34.3-57.8c17.4-16.3,24.7-53.1,1.3-57.5
				c-27.8-8-56.7-16.6-78.1-36.1c-21.4-19.5-32.7-53.4-17.6-78.2c17.9-29.5,66-37.8,70.9-72c5-34.7-38-53.1-67.9-71.4
				c-34.5-21.2-59.6-57.1-67.5-96.8c24.3-25.7,57.4-42.9,92.4-48c1.5-47-29.2-87.9-54-127.9c-24.8-40-44.8-91.3-22.2-132.5
				c24.6-29.3,73.6-0.7,89.8,33.9c16.1,34.6,22,78,54,98.8c4.9,3.1,10.6,5.7,16.3,4.7c6.5-1,11.4-6.2,16-10.8
				C4642.8,4027.4,4675.6,4011.5,4700.3,4026.9"/>
			<path class="st21" d="M2726.8,1475.6c17.7-53-0.7-110.5-19-163.3c-22.7-65.4-45.4-130.8-68.1-196.2c-3.7-10.7-7.9-22.1-17.2-28.8
				c-11.9-8.6-28.1-6.5-42.6-4c-62.2,10.7-139.7,37.9-141.5,101c40,7,80,13.9,120,20.9c-44.2,8.1-93.1,22.2-114.9,61.5
				c-21.9,39.3,13.5,103.3,55.6,87.6c-35,8.6-70.7,21.2-95.7,47.1c-25.1,25.9-36.2,68.2-17.3,98.9c18.9,30.7,72.1,35.5,89.5,4
				l-88,89c-21,21.3-42.6,43.5-53.2,71.4c-10.6,28-7.2,63.6,16.1,82.4c23.3,18.8,66.4,8.4,71.2-21.2
				c-31.3,34.6-62.8,69.5-85.6,110.2c-18.1,32.2-29.6,74.4-8,104.4c21.6,30,84,16.4,77.5-20c-40.6,45.2-71.9,98.8-91.1,156.4
				c-3.5,10.5-6.7,21.7-4.5,32.6c5.4,26.8,41.3,37.2,66.4,26.4c25-10.8,41.1-35.2,55.5-58.4c-17.1,28.2-34.8,58.9-31.7,91.7
				c3,32.8,38,63.9,67.9,50.1c15.3-7.1,24.3-23.2,30.3-39c19.2-50,19-107.3-0.6-157.2c-6.9,49.5,38,99.7,88,98.2
				c35.4-68.1,19-159.2-37.8-210.7c21.7,47.9,75.6,79,128,73.9c-5.5-89.3-40.7-176.6-98.6-244.8c26.8,43,76.4,70.7,127.1,71.1
				c-2.7-82.9-45.2-163.6-112.1-212.7c26.5,31.1,70.2,46.6,110.4,39.2c15.2-83.7-37.9-162.9-88.3-231.4
				C2641,1442.7,2682.2,1468.1,2726.8,1475.6"/>
			<path class="st11" d="M2233.1,2018.9c-57.9,25.1-107.8,68.4-140.9,122.1c-12.2,19.8-21,48.2-4,64c8.9,8.2,22.1,9.7,34.2,10.1
				c73.4,2.7,147.5-16.5,210.4-54.4c-53,37.5-112.7,101.3-79.8,157.3c25.5,43.5,93.6,42.1,132.6,10.1c39-32,56.1-82.8,71.3-130.8
				c-34.4,76.5,41.5,176.8,124.4,164.5s126.4-130.4,71.2-193.6c42.4,33.3,105.5,37.4,151.9,9.8c22.3-35.6,6.7-85-24-113.7
				c-30.7-28.7-72.4-41.7-112.7-53.8c66.3,32.6,159.4,0.8,183.2-69.1c23.9-69.9-41.7-156.4-114.5-144.2c40.7,35.4,112,13,135.1-35.7
				c23.1-48.7,4.1-110-34.9-147.3c-38.9-37.3-93.5-54-147.1-59.8c61,56.1,176.2,6.7,188.1-75.3c11.9-82-68.1-159.9-150.9-158
				c40.3,2.2,82,4.2,119.9-9.8c37.9-14,71.4-48.2,71.3-88.6c-0.1-79.4-107.6-102.5-187-100.3c31.1,9.8,64.3,19.6,95.7,11
				c31.4-8.6,57.7-44,44.4-73.7c-10.4-23.4-38.6-32.3-63.8-37.1c-51.3-9.7-103.9-13-156-9.6c21.9-97.1,65.1-189.4,125.8-268.3
				c-43.7-32.6-105,14.2-125.7,64.6c-20.7,50.4-27,111.1-69.1,145.7c-30.6-32.2-64.7-66.2-108.7-72c-44-5.7-94.6,35.5-79.7,77.2
				c6.3,17.7,22.2,30.2,38,40.3c36.7,23.4,77.8,39.8,120.5,48c-62.6-27.3-128.4-55.2-196.5-50.2c-68.1,4.9-138.3,54.3-141.7,122.6
				c77.3,56.3,172.7,87.3,268.3,87c-71.2-9.1-143.1-13.3-214.9-12.6c-22.4,0.2-46.1,1.3-65.1,13.2c-47.8,30.1-31.4,110.6,15.9,141.4
				c47.3,30.8,108.4,26.8,164.7,21.6c-67.3-4.7-135.9,10.9-194.6,44.4c-29,16.5-58.9,48.3-45.5,78.9c8.3,19,29.9,27.7,49.4,34.6
				c49.2,17.4,98.4,34.8,147.6,52.2c-110.9-8.7-224.5,49.6-282,144.9c78.5,44.8,168,70.1,258.3,72.9
				c-114.4-11.8-231.9,64.4-267.7,173.6C2107.5,1997.1,2169.9,2012.7,2233.1,2018.9"/>
			<path class="st2" d="M4008.1-321.3c-23.7,27.8-47.5,55.6-71.2,83.4c-195.6-42.7-396.1-62.8-596.3-60
				c-36.9,0.5-75.4,2.2-107.7,20.1c-30.5,16.9-72.6,84.6-45,117.6c7.8,9.2,19.3,14.4,30.9,17.9c36.1,10.9,74.6,8.5,112.2,8.8
				c87.8,0.9,175.5,17.8,257.3,49.7c9.8,3.8,37.1,18.6,24.2,33.2c-7.3,8.3-36.9-7.1-46-8.8c-55.1-10.9-115.1-10.8-171.1-14.4
				c-112.4-7.3-225-10.2-337.6-8.7c-51.8,0.7-107,3.3-149.2,33.3c-42.2,30-61.6,97.5-24.9,134.1c15.9,15.9,38.6,22.8,60.3,28.9
				c153.7,43.2,309.9,77.1,467.7,101.6c-241.1-2.9-482.4,12.1-721.3,44.8c-49.8,6.8-101.3,15-143.5,42.4
				c-42.2,27.3-72.8,79.1-60,127.7c15.9,60.4,85.6,87,146.5,100.9c132.2,30.1,268.1,43.7,403.6,40.3
				c-243.6,40.6-514.9,98.4-651.4,304.3c-22.7,34.2-40.4,80.2-17.9,114.5c16.2,24.8,47.8,34,77,39.3
				c306.9,55.8,606.2-108.7,874.8-267.1c-79,78-142.4,171.8-185.3,274.2c-25.2,60-41.8,133.7-3.6,186.3
				c37.7,51.9,116.5,59,174.5,31.8c58.1-27.3,99.3-80.5,134.4-134.1c87.9-134.3,152.6-283.7,190.2-439.7
				c-6.7,55.2-13.1,113,6.8,164.9c19.9,51.9,75.3,94.8,129.1,80.8c66.6-17.3,86.5-100.8,92.6-169.3c11.9-133,18.2-266.5,18.7-400
				c-21.1,109.5,28.5,229.3,120.9,291.8c19.2,13,41.7,24,64.7,21.4c48.1-5.5,69.7-62.7,76.6-110.6c19-131.4,5-267.5-40.2-392.3
				c6.5,68.3,42.2,159.4,109,143.8c61.5-14.4,61.5-102.3,41.7-162.2c-45.3-137.3-119-265.1-214.9-373.2c15-25.3,30.1-50.7,45.2-76.1
				C4055.9-307.4,4032-314.3,4008.1-321.3"/>
			<path class="st8" d="M3509.7-2.4c-29.3-0.5-60-0.7-85.9,13c-25.9,13.7-44.4,46.1-32.3,72.8c53,3.9,105.1,20.1,151,46.9
				c16.1,9.4,32.1,20.8,40.8,37.3c19.6,37.4-8.1,85.3-46.1,103.4c-38.1,18.2-82.3,15.2-124.5,13.5c-134.4-5.5-269.3,5.3-401.1,32
				c-34.2,6.9-75,21.8-80.2,56.3c-7.1,47,56.7,70,104.1,66.4c47.4-3.6,106.2-10.7,131.6,29.4c19.9,31.4,3.5,75.1-24.9,99.2
				c-28.4,24-65.6,34.1-100.5,47.1c-92.4,34.3-175.5,93.2-238.5,169.1c-15.4,18.6-30.5,42.1-23.7,65.3
				c12.9,44.5,78.9,33.2,120.4,12.5c171.3-85.7,342.5-171.3,513.7-257c-5.2,103.1-55.9,197.6-105.3,288.2
				c49.7,36.9,124.8,8,161.8-41.6c37-49.6,48-113.1,66.1-172.3c18.1-59.2,49.1-121,106.2-144.8c21,55,28.6,115.1,21.7,173.6
				c57.3,9.9,106.3-47.5,117.7-104.5c11.4-57-1.2-116.1,3.8-174c2.7-31.6,16.7-68.7,48-74.1c58.9-10.1,73.8,95.2,132.2,108.1
				c56.4,12.5,85.7-71.9,63.4-125.1c-22.3-53.2-69.7-97.2-74.7-154.7c-2.8-32.7,20.8-73,52.8-66c25,5.4,37.2,35.9,61.4,44.2
				c28.4,9.6,58.4-18.7,61.3-48.5c2.9-29.8-13-58.1-30.4-82.4C3992.7-118.2,3801.7-202,3620-179.7c4.6,41,47.6,64.2,83.4,84.8
				c35.8,20.6,73.6,57.9,59.7,96.8C3678.6,0.4,3594.1-1,3509.7-2.4"/>
			<path class="st6" d="M4788.4,681.3c10.1-83.4,31.8-165.4,64.3-242.9c17.8,84.5,47.3,166.5,87.2,243.1
				c-11.9-81-23.9-162.1-35.8-243.1c40.3,43.6,87,81.2,138.1,111.3c-21-72.8-56-141.5-102.7-201.2c44.4,42,101.3,70.8,161.4,81.8
				c-46-74.5-95.8-146.6-149.2-215.9c52.1,19.3,104.2,38.6,156.4,58c-71.4-64-140-131.1-205.5-201.1
				c50.7,37.4,109.7,63.6,171.4,76.1c-67.1-63.9-134.2-127.8-201.3-191.7c48.6,7.4,95.3,26.4,135.2,55.1
				c-25.6-71.8-77.6-133.9-143.9-171.6l94.6,26.1c-55.4-45.6-110.7-91.2-166.1-136.7c-57.6,80.6-117.2,159.7-178.8,237.4
				c37.9-50.6,91.2-89.5,151-110.2c-62.7,90.6-125.3,181.2-188,271.8c57-55,119.6-104.2,186.5-146.5
				c-56.6,98.6-109,199.7-156.9,302.9c38.2-70.7,92.3-132.8,157.2-180.3c-49.2,118.1-98.4,236.1-147.6,354.2
				c52.1-74,104.2-147.9,156.3-221.9c-24.3,115.7-52.2,230.6-83.7,344.6c27.8-77.9,63.9-152.9,107.6-223.1
				C4788.2,465.1,4785.6,573.3,4788.4,681.3"/>
			<path class="st7" d="M4909.8,114.3c-7.7-42.8-28.7-83.1-59.4-113.8c18.4,3.2,36,11.1,50.6,22.8c-15.4-51.5-42.1-99.5-77.8-139.7
				c-11.9,43-23.9,86-35.8,129c6.1-16.8,18.6-31.1,34.4-39.5c-12,67.3-23.9,134.5-35.9,201.8c14.6-26.9,29.3-53.7,43.9-80.6
				c0,87.8,0,175.6,0,263.4c27-35.4,44.3-78.2,49.4-122.4c12.8,47.2,32.8,92.4,59.1,133.6c10-66.5-3-136.2-36.3-194.7
				c9.7,22.9,28.7,41.8,51.7,51.5c-22-52.4-54.8-100.3-95.8-139.8C4873.1,98.6,4890.9,108.3,4909.8,114.3"/>
			<path class="st9" d="M1879.2,2027.8c-4.9,98.3-9.8,196.6-14.7,294.9c33.7-75.9,67.4-151.7,101.1-227.6
				c16.5,34.5,45.1,62.9,79.4,79.1c-7.1-74.3-14.3-148.7-21.4-223c25.3,22.2,58.7,34.5,92.1,34c-29.4-55.1-58.8-110.2-88.2-165.3
				c38.4,5.2,76.7,10.5,115,15.7c-46.2-42.8-81.7-97.3-102.3-157.1c28.5-2.1,57-4.2,85.5-6.3c-123-88.8-167-273.3-97.7-409.2
				c-22.7-0.2-45.3-0.4-68-0.6c-4.8,58.3-9.6,116.6-14.5,174.9c-1.4,17.1-3,34.8-11.1,49.9c-7.8,14.4-20.8,25.1-33.5,35.3
				c-66,53.2-132,106.4-198,159.7c48.6,11.6,100.7,8.1,147.3-10.1c-63.6,65.9-127.2,131.8-190.9,197.6
				c47.8-5.8,95.6-11.6,143.3-17.3c-57.9,50.9-106.4,112.6-142.3,181.2c53.7-26.4,107.4-52.9,161.1-79.3c-20,60.3-40,120.7-60,181
				C1806.8,2107.1,1846.9,2070.5,1879.2,2027.8"/>
			<path class="st10" d="M1801.2,1887.3c32.4-5.5,64.8-10.9,97.2-16.4c-17.6,57.2-22,118.5-12.9,177.7
				c19.9-53.7,39.8-107.4,59.7-161.1c22.5,22.4,51.9,37.5,83,42.6c-36.6-46.5-64.5-100.1-81.9-156.9c22.5,4.7,44.9,9.4,67.4,14.1
				c-37-71.3-84.9-136.8-141.5-193.4c-18.3,49.7-48,95.1-86.1,131.5c31.9,14.5,67.4,20.9,102.3,18.4
				C1859.4,1791.6,1830.3,1839.5,1801.2,1887.3"/>
			<path class="st15" d="M3076.5,278.3c12.6-128.8-22.8-261.7-97.7-367.2c11.8,39,49.4,68.8,90.1,71.3
				c-16.7-107.2-64.1-209.4-135.1-291.5c-47.1,18.7-94.6,37.5-144.5,46.9c-97,18.2-210,4.1-281.3,72.3
				c-2.3,59.9,70.8,89.2,129.5,101.4C2553.8-41,2470.2,6.4,2386.6,53.8c-27.6,15.7-58.6,36.4-60.7,68.1c-2.4,36.6,36.6,63.1,72.9,68
				c36.3,4.9,73.7-3.5,109.7,3.1c-135.2,51.3-240.2,175.5-268.1,317.4c100.9,28.6,203-33.5,289.6-92.7
				c-26,59.6-42.1,123.6-47.4,188.4c-2.1,25.7-1.2,54.9,17.5,72.7c22.5,21.4,59.2,15.6,87.4,2.6c114.3-52.4,166.1-183.4,207.2-302.3
				c-7.4,47.4-14.5,98,4.9,141.9c19.4,43.9,76.5,74.6,117.1,48.9c32.8-20.8,39.3-65.3,40.8-104.1c4-97.3-1.8-195.1-17.2-291.2
				C2935.2,242.1,3012.8,301.2,3076.5,278.3"/>
			<path class="st16" d="M2711.5,214.8c-26.5,35.4-44.2,77.3-50.8,121.1c15.6,15.5,42.1,15.4,61.4,4.7
				c19.2-10.7,32.3-29.8,42.5-49.4c29.5-56.9,39.3-123.8,27.4-186.7c1,22.1,2.1,44.2,3.1,66.3c0.5,10.7,1.7,22.9,10.4,29.3
				c19.7,14.6,40.8-16.9,44.8-41.1c16.7-101.6,21-205.1,12.9-307.7c-69.9-1.9-140.2,16.1-200.6,51.4c-7.9,21.9,6.3,46.8,26.2,58.8
				c19.9,12.1,44,14.4,67.1,16.5c-70.3,20.4-137.8,50.3-200.1,88.8c-29.7,18.3-61.2,57.1-37.7,83c9.2,10.2,23.9,13.1,37.6,13.9
				c44.9,2.7,90.7-11.7,126-39.6c-87,36.1-154.5,116.1-175.3,208C2586.5,321.9,2662,278.7,2711.5,214.8"/>
			<path class="st13" d="M323.1,429.6c42.8-36.1,92.6-63.8,145.8-81.1c-18.5,114.3-52.1,226.2-99.7,331.8
				c59.1-73,121.6-143.3,187.2-210.5c-0.3,53.7-0.6,107.4-1,161.1c31.2-61,68.6-118.9,111.3-172.5c6.2,80.4,41.6,158.1,98.2,215.6
				c6.1-72.1,5.4-144.7-2.1-216.6c38.8,29,84,49.3,131.4,59.2c-77-74.2-155-147.3-234-219.4c39.2-23.6,78.4-47.1,117.6-70.7
				C710,207.3,642.2,188.2,574.4,169c37.7-16.6,75.4-33.2,113.1-49.8c-60.6-16.9-121.1-33.8-181.7-50.8c-12.1-3.4-24.6-6.8-37.1-5.1
				c-18.7,2.5-33.8,16-47.5,29C375.1,136,330.8,181.6,288.5,229c57.3-7.2,113.8-21.3,167.8-41.8L323.1,429.6z"/>
			<path class="st22" d="M864,3560.7c-11.4,17.5-11.9,39.7-19.1,59.3c-30,81.4-162.6,94.9-177.4,180.3c8-73.8,16.1-147.6,24.1-221.3
				c1.2-11.2,2.6-22.8,8.4-32.5c14.6-24.6,49.4-26.1,73.2-41.9c61.4-40.7,29.5-154.6,92.1-193.5c17.7-11,39.5-13,58.4-21.9
				c43-20.3,61.9-71.5,66.7-118.7c4.8-47.3,0-96.1,14-141.4c40.6-5.5,85-13.1,111.3-44.5c13.3-15.8,20.2-35.8,31.1-53.3
				c25-40.3,75.1-66.1,121.1-55c46,11.1,80,63.9,64,108.5c-15.2,42.6-63.2,61.9-97.5,91.4c-35.4,30.4-57.9,75.4-61.1,121.9
				c-2.2,32.4,1.8,71.4-24.4,90.4c-13.9,10.1-32.3,10.8-48.6,16.2c-84.2,27.7-83.4,157.6-157.6,206
				C916.4,3528,881.2,3534.4,864,3560.7"/>
			<path class="st8" d="M4378.2,2724.7c-33.7-22.6-33.7-71.2-50.2-108.3c-36.7-82.6-150-99.1-207-169.2c-30.8-37.9-42.9-89-76.9-124
				c-56.2-57.8-154.8-55.1-212-111.9c-68.3-67.8-59.7-201.9-148.1-239.7c-24.7-10.6-53.3-10.9-76.6-24.1
				c-43.1-24.4-53.4-82.1-87-118.5c-48.3-52.5-146.8-42.9-184,18c-37.2,60.9-0.9,152.9,67.9,172c32.5,9,68.9,3.9,98.6,19.9
				c19,10.3,32.6,28,45.7,45.2c66.9,88.1,133.7,176.2,200.6,264.3c20,26.4,42.1,54.3,73.8,64.1c23.3,7.2,48.7,3.5,72.3,9.4
				c82.8,20.8,103.9,142.7,185.2,168.8c23.8,7.7,50.9,6.1,72.2,19.4c29.2,18.3,36.1,57,52.7,87.2c34.4,62.8,110.4,88.1,179.9,105.4
				c69,17.1,138.5,31.7,208.6,43.6c-35-54.4-93.2-93.4-156.9-105.1C4416.7,2737.5,4395.2,2736.1,4378.2,2724.7"/>
			<path class="st9" d="M4301.2,1613.9c17.7,59.1,91.7,80,153.2,76.1c61.5-3.9,124.7-22.6,183.5-4.1
				c-147,7.3-292.3,47.3-422.3,116.3c-56.4,29.9-117.8,89.5-90.1,147c20,41.6,74.4,50.8,120.5,51.8c80.4,1.7,161-5.5,239.8-21.5
				c-245.8,37.5-477.1,164-641.3,350.8c-26.2,29.8-51.8,63.7-54.9,103.3c-5,64.2,54.5,119.4,117.8,131.3c63.3,11.8,128-9,187.6-33.4
				c144.5-59,279.9-140.3,399.7-240.3c-68.4,50.5-119.9,123.6-144.3,205c-6.3,20.8-10.8,43.1-5.4,64.2c11.9,46.5,69.7,69,116.4,57.6
				c46.7-11.3,83.4-46.8,114.7-83.1c111.5-129.2,187-289.1,216-457.3c14.2,46.8,2.9,97.4,7.4,146.1c4.5,48.7,36.5,103.4,85.5,102
				c55.6-1.6,80.9-69.3,90.3-124.2c23.6-136.9,38.4-275.3,44.3-414.1c-4.4,47-8.2,97.2,14.6,138.5c22.9,41.3,83.6,64.6,118.6,33
				c16.4-14.8,23.2-37.5,27.8-59.1c42-197.5-32.2-399.2-105.1-587.5c14.8,65.7,64.8,122.4,128.1,145.3
				c51.6-44.4,29.8-128.4-2.1-188.5c-31.9-60.2-70.8-130.8-40.6-191.8c-21.3-0.3-42.7-0.5-64-0.8
				c-10.3,82.8-109.4,118.6-192.1,130.2c-82.6,11.6-181,26.4-216.7,101.8c-5.8,12.2-9.4,26.1-6.6,39.3
				c12.5,57.8,109.5,32.9,151.3,74.8c-127.4-14.9-257.7-5.3-381.5,28.1C4371.4,1472.3,4277.4,1534.6,4301.2,1613.9"/>
			<path class="st10" d="M5068.3,1476.2c13.8-67.3-3.3-140.3-45.6-194.4c-31.2-34.9-99.2-18.7-112.2,26.2
				c-13,44.9,34.7,94.6,80.4,84.4c13.7,56.7-42.4,108.6-99.2,121.9c-56.8,13.3-116.7,3-174.3,12.8c-57.5,9.8-118.3,52.5-115.2,110.7
				c42.5,4.3,91.2,12.3,113.3,48.8c29.5,48.8-12.4,113.4-64.5,136.7c-52.1,23.2-111.7,21.7-166.4,37.9
				c-54.7,16.2-109.5,63.2-101.1,119.6c55.1,0.4,78.4,79,51.3,127c-27.1,48-80.8,72.9-127.8,101.6c-48.7,29.8-93.1,66.5-131.4,108.8
				c-9.3,10.3-18.9,23.7-14.4,36.8c6.9,20.1,36,17,55.8,9.4c81.6-31.5,158.8-74.2,228.9-126.4c9.1-6.8,19.1-14.1,30.4-13.7
				c21.9,0.7,32.2,28.2,30.6,50.1c-1.6,21.9-8.9,45,0.3,64.9c87-20.1,127.9-118,153.4-203.5c25.5-85.6,60-184,144.6-212.5
				c2.4,44.4,15.4,88.1,37.6,126.6c46.1-37.5,53.4-103.5,63-162.1c9.5-58.6,32.8-125.5,89.6-143.1c-3.9,27.1,37.9,41.7,58.8,24
				c20.9-17.7,21.9-50,14.4-76.3c-7.5-26.3-21.8-50.7-26-77.8C5035.3,1568,5058.8,1522.6,5068.3,1476.2"/>
			<path class="st9" d="M4705.4,2014c6.7-2,13.8,0.4,20.7,1.2c27.4,3.1,52.2-20.3,60.4-46.7c8.2-26.4,3.8-54.8-0.6-82
				c19.4,7.6,40.5,10.9,61.3,9.5c10.1-43.3,13.9-88.1,11.1-132.5c6.9,11.6,19.5,19.7,32.9,21.2c7.5-40.8,9.5-82.6,5.8-123.9
				c0.8,9.5,15.6,11.4,22.2,4.5c6.6-6.9,7-17.4,7-27c0-23,0-46-0.1-69c-28.3,12.3-56.6,24.6-85,36.9c-10.1,4.4-20.7,9.2-26.7,18.4
				c-6,9.2-4.3,24.1,5.8,28.2c4.5,1.8,9.7,1.2,14.5,1.9c23.2,3.7,28.1,38,14.1,56.9c-14,18.9-37.6,27.1-58.2,38.3
				c-20.6,11.3-40.9,30.9-38.1,54.1c1.4,11.5,8.3,21.9,8.2,33.5c-0.1,23-25.6,35.8-46.3,45.6c-100.5,47.5-174.1,147.8-189.4,257.9
				c66.2-11,127-51.7,162.2-108.9C4692,2024.7,4697,2016.4,4705.4,2014"/>
			<path class="st9" d="M2278.5,4136.9c-147.8,46.5-295.7,93.1-443.5,139.6c71.3,13.9,142.7,27.8,214,41.6
				c-213.5,6.7-424.1,87.4-587.3,225.3c-16.6,14-34.3,29.3-55.9,31.5c-21.6,2.2-46.4-16.7-40.7-37.7c72.1-12,121.3-83.4,135.8-155
				c14.5-71.6,3.1-145.6,1.2-218.7c-3.6-137.1,27.5-275,89.5-397.3c-19.1,127.3-22.7,257-10.5,385.2
				c47.9-317.7,128.6-630.5,240.4-931.7c-42.1,200.1-54.2,406.5-35.6,610.1c36.7-236.3,89.4-470,157.5-699.2
				c-9,143.3-6,287.3,9.1,430c32.7-232.7,93.4-461.5,180.2-679.8c-3.2,158.3-6.4,316.5-9.6,474.8
				c82.5-243.3,183.3-480.4,301.2-708.6c-47.4,191.5-94.7,382.9-142.1,574.4c138.6-139.1,277.1-278.2,415.7-417.3
				c-80.4,148-160.8,296.1-241.3,444.1c117.8-50,235.6-100.1,353.4-150.1c-108.8,117.3-229.7,223.3-360.3,315.7
				c94.7-23.2,189.4-46.4,284.1-69.6c-89.3,103.5-199.5,189-321.9,249.8c90-23.4,183.2-34.6,276.3-33.3
				c-127.3,113.8-272.3,207.9-428.1,277.7c80.9,0.2,161.8,0.4,242.8,0.6c-148.9,117.7-317.9,209.9-497.5,271.4
				C2096.5,4093.5,2192.3,4102.8,2278.5,4136.9"/>
			<path class="st10" d="M2118.2,3604.3c73.3-74.1,131-163.5,168.3-260.9c-36.6,99.3-73.2,198.6-109.8,297.9
				c40.7-17.2,81.4-34.3,122.1-51.5c-41.4,73.2-106,133-182.1,168.7c39.6,12.4,82.7,13.2,122.7,2.2
				c-69.8,75.5-157.8,134.1-254.3,169.6c50.9,13.8,103.7,20.4,156.4,19.4c-92.7,54.1-189.7,100.6-289.9,139
				c34.9,18.6,77.6,22.1,115.1,9.4c13.8,16.2-10.1,37.4-30,45.1c-75.1,29.3-150.2,58.6-225.3,87.8c40.3,17.3,85.9,21.9,128.9,13
				c-82.3,31.4-168.3,53.2-255.7,64.7c26.8-91.1,53.6-182.1,80.4-273.2c14.6,48.9,19.9,100.6,15.5,151.4
				c0.2-125.1,26.2-250.1,75.9-364.9c6.4,53.6,12.9,107.1,19.3,160.7c39.7-111.1,79.3-222.2,119-333.3c4.1,61,8.1,121.9,12.2,182.9
				c40.5-128.8,81-257.5,121.5-386.3c0.1,88.4,6.6,176.9,19.6,264.3c12.8-133.3,35.9-265.6,69-395.4
				C2121.1,3411.5,2121.5,3508,2118.2,3604.3"/>
			<path class="st17" d="M1454.3,4910.7c-23.6,59-6.2,126.9-21.4,188.6c-15.2,61.7-99.8,113.6-139.1,63.7
				c-23.1,56.2-33.7,117.5-30.7,178.2l-46,0.1c0-49.5,0-99,0-148.4c-76.2,12.8-124.6-95.5-89.9-164.6c17.8-35.4,49.3-66,51.7-105.6
				c3.5-57.7-56.7-102.7-59.5-160.4c-2.8-59.8,56.1-106.8,61.7-166.4c7.2-76.6-74.7-138-74.2-214.9c0.4-70.6,70.5-128.9,63.8-199.2
				c-6.8-72.7-94.1-136.2-62.9-202.2c8.8-18.7,26-32.2,36.6-50c21.5-36.2,12.3-81.7,10.5-123.7c-4.1-95.9,43.4-199.1,131.9-236.2
				c88.5-37.2,210.5,18.9,219.6,114.5c8.6,90-75.2,174.8-51.9,262.1c15.2,56.9,73.9,100.7,69.9,159.4c-3.2,47.9-48.1,84.4-54,132.1
				c-8.1,65.5,58.8,118.2,65.3,183.8c7.7,78.4-71.6,143.2-71,222c0.4,58.2,45.2,112,35.3,169.5
				C1493.8,4848.5,1467.7,4877.1,1454.3,4910.7"/>
			<path class="st18" d="M1287.1,4267.1c-0.3-28.1-27.1-48.7-34.9-75.7c-14.3-50.2,40.4-103.3,20.7-151.7
				c-11-27.1-42.6-42.3-51.8-70.2c-13.5-41.1,27.6-78.2,41.1-119.3c8.8-26.7,6-56.7,18.2-81.9c12.3-25.2,52.3-39.7,67.1-15.9
				c63.2,47.3-3.6,153.5,28.1,225.8c5.6,12.9,14.4,24.3,18.4,37.8c8.2,27.6-5,56.6-8,85.3c-2.4,22.9,1.9,45.9,5.5,68.6
				c22,137.8,20.5,279.4-4.5,416.8c-3.4,18.8-7.5,38.1-17.7,54.3c-8.4,13.3-20.5,23.9-28.5,37.5c-20.1,34.1-9.8,76.8-7,116.3
				c2.8,39.4-10.5,88.5-49.2,96.6c10.2,61.7-4.4,127.2-40,178.7c-11.6,3.8-23.2,7.7-34.8,11.5c-24.5-19-17.3-58-2.1-85
				c15.1-27,36.6-54.1,33.4-84.9c-2.7-26-22.7-47.8-25.1-73.8c-4.9-51.8,60.3-94.6,46.8-144.9c-4.8-17.7-18.7-31.5-25.9-48.4
				c-29.1-68.6,62.1-145.9,32.4-214.2c-8.9-20.4-27.9-36.8-29.8-58.9C1236.5,4332.5,1287.5,4306.2,1287.1,4267.1"/>
			<path class="st9" d="M1778.6,4074.6c12.7-41.3,27.2-82.1,43.4-122.2c9.4,11.2,13.1,27,9.7,41.2c44.9-63.3,82.7-131.5,112.6-203.1
				l-13.5,90.3c26.3-74.3,77.6-139.5,143.6-182.4c-17.3,70.7-56.4,135.9-110.6,184.6c27.8-13.5,55.6-27,83.4-40.4
				c-33.6,51.9-86.5,91-146,107.8c34.4-2.5,68.8-5,103.2-7.5c-45,36.7-96.9,65.1-152.1,83.3c30.4-3.6,60.8-7.1,91.2-10.7
				C1888.5,4035.2,1833.6,4054.9,1778.6,4074.6"/>
			<path class="st20" d="M2518,938.7c-24.9,10.5-53.4-15-55-42c-1.5-27,15.3-51.5,34.3-70.8c48.4-49,116.2-78.5,185.1-80.5
				c-63.2,11.7-117,63.4-131.3,126C2545.3,896.8,2542,928.5,2518,938.7"/>
			<path class="st22" d="M1911.9,2653.5c-21,20.3-49.3,30.6-76.9,40c-4.5,1.5-9.2,3-13.8,1.8c-9.5-2.6-11.8-15-11.6-24.9
				c1.3-66.5,30.5-140.9-8.8-194.6c45.8-14.4,100.4,4.8,126.2,45.4C1952.8,2561.8,1946.5,2620.1,1911.9,2653.5"/>
			<path class="st22" d="M1791.2,3050.4c-8.6,22,14.3,47.6,37.8,45.9c23.6-1.7,41.9-24.7,43.5-48.3c1.6-23.6-10.4-46.4-27-63.3
				C1846.3,3015.7,1821.8,3045.3,1791.2,3050.4"/>
			<path class="st22" d="M5031.3,2694c-12.3,10.6-30.1-3.3-40.1-16c-50.1-64.1-100.2-128.3-150.3-192.4
				c53.3-12.8,112.8,3.5,152.1,41.7c39.3,38.3,57.2,97.2,45.9,150.9C5037.5,2684,5035.8,2690.1,5031.3,2694"/>
			<path class="st17" d="M-264.3,1042.9c37,5.8,75.3,3,111-8.1c-50,56.2-94.4,117.4-132.3,182.4c61.3-38.3,119.3-81.9,173.1-130.1
				c-39.5,60.2-65.3,129.3-74.9,200.6c46.2-62,85.6-128.9,117.6-199.3c-7.3,44.5-5.7,90.5,4.6,134.5c39.4-20.1,42-74.5,39.1-118.7
				c-4.1-63.3-8.2-126.6-12.3-189.9c-0.7-10.4-3.9-23.7-14.3-24.8c-4.5-0.5-8.8,1.8-12.7,4C-138,934.1-205.1,984.5-264.3,1042.9"/>
			<path class="st11" d="M5042.6,2160.5c6.5-39.1,42.4-71.2,82-73.4c-1.5,47.4-25.6,93.6-63.7,121.9c27.6-21.9,61.2-36.1,96.1-40.7
				c-1.6,59.8-68.4,92.9-124.9,112.6c30.5-11.3,68.1,1.9,84.7,29.9c-50.4,21.5-102.6,38.9-155.8,51.9c33.1-2.2,66.6,3.7,97,16.9
				c-66.4,77.3-197.5,86.6-274.2,19.5c62.7-20.4,116-68.2,143.1-128.4c17.1-38.1,23.9-79.9,38-119.2c14.1-39.3,38.1-78.2,76.5-94.6
				C5041.7,2091.6,5042.2,2126,5042.6,2160.5"/>
			<path class="st13" d="M3541.2,3081.5c-13.3,4.9-28.5,12.6-30.3,26.6c-2.2,17.8,18.4,29.1,35.7,33.7
				c86,23.1,180.5,12.8,259.5-28.4c-31,8.4-62.7,17-89.3,35.2c-26.6,18.1-47.5,47.7-46.5,79.9c83.3,12.8,171.5-10.6,237.5-62.9
				c-48.2,11.1-85,59-83.5,108.4c32,22.9,75.6,2.2,110.3-16.2c120.6-64.2,277.8-96.3,387.8-15.4c3.7-13.2,12.4-24.9,24-32.3
				c-63.7-55.3-97.1-136.6-140.3-209.1c-43.2-72.5-107.1-143.4-191.2-150.9c-14,56.5,14.2,120.7,65.3,148.6
				c-31-41.1-62-82.3-93.1-123.4c-49.4-65.5-114.9-138.3-196.3-128c10.7,70.7,51.1,136.4,109.4,177.9
				c-84.9-61-180.2-124.9-284.2-114.6c-25.3,2.5-57,26.6-41.1,46.5c51.9,47.8,120.4,77.3,190.8,82.2c-72.8,0.4-145.7,0.9-218.5,1.3
				c-26.8,0.2-64.6,15.6-53.9,40.1c4.4,10.1,15.9,14.8,26.3,18.4c63.4,21.3,129.7,34,196.5,37.6
				C3656.7,3045.7,3597.9,3060.7,3541.2,3081.5"/>
			<path class="st13" d="M4050.1,2989.7c-0.2,17.3-0.5,34.6-0.7,51.9c-25.6-30.8-51.1-61.5-77.7-91.5
				c-15.6-17.6-32.4-35.5-54.4-43.6c-22.1-8.1-50.8-3-62.4,17.4c-11.6,20.4,6.7,52.6,29.6,47.2c-26.3-20.5-52.7-41-79-61.5
				c-6.3-4.9-12.9-9.9-20.8-11.2c-23.1-3.6-37.1,29.8-25.8,50.2c11.3,20.5,35.6,29.5,57.8,36.9c-21.7-6.5-45.1-7.3-67.1-2.2
				c22.3,49.2,80.5,79.2,133.4,68.8c-34.7-13.4-71.3,35-52.8,67.4c18.5,32.3,71.9,31.7,94.4,1.9c-23.7-5.8-50.6,6.6-61.5,28.4
				c44.3,20.8,101.9,7.8,133-30c-13.6,15.4-27.1,30.8-40.7,46.2c62.5,23.4,131.7-61.1,191.2-30.8
				C4133.2,3077.3,4098.3,3024.6,4050.1,2989.7"/>
			<path class="st17" d="M1619.5,3383.6c15.2,24.3,55.2,19.9,73.8-1.9c18.6-21.8,20.7-53,19.2-81.7c-1.5-28.6-5.8-58.1,2.9-85.4
				c-53.4,16.4-89,69.6-99.9,124.4C1612.6,3354,1611.5,3370.6,1619.5,3383.6"/>
			<path class="st12" d="M2449.2,1887.8c19.9-52.8,35-107.4,45.2-162.9c-10.3,20.6-20.9,42.5-19.5,65.5c1.5,23,20,46.7,43,44.9
				c14.6-61.6,16.2-126.2,4.8-188.4c-16.5,47.8,12.9,101,53.4,131.2c7.8-79.6-0.4-160.6-23.8-237.1c-7.7,44.9,14.4,93.5,53.3,117.1
				c4.6-82.5-12.3-166.1-48.7-240.2c14.9,41.4,37.5,80,66.3,113.3c8.8-111.2-4.3-224.1-38.4-330.3
				c-68.5,44.3-122.1,111.1-150.6,187.5c37.1-1.5,73.7-15.1,102.7-38.4c-54.9,37.8-99.9,89.9-129.2,149.8
				c35.3,7.3,74.3-7.1,96.4-35.6c-58.4,55.2-99.1,128.8-114.7,207.6c43.4-22,79.8-57.8,102.4-100.9
				c-60.8,75.4-98.8,168.9-107.7,265.3c39-24,68.7-62.5,82.1-106.3c-40.8,55.7-64,124-65.8,193
				C2419.9,1935.3,2441,1909.5,2449.2,1887.8"/>
			<path class="st11" d="M1596.2,5184.5c10.2-70.5,20.3-140.9,30.5-211.4c-80.2,20.2-129.2,103.4-145.8,184.3
				c-5.1,25-8,51.6,1.1,75.4c9.1,23.8,33.2,43.5,58.4,39.8C1577.4,5267.2,1590.8,5221.5,1596.2,5184.5"/>
			<path class="st13" d="M515,5306.5c-135.5,46-280,65.5-422.9,57.2c-46-2.7-94.4-7.8-136.4,11.3c-42,19.1-71.9,73.4-47.4,112.5
				c-24.2-4.8-48.3-9.7-72.5-14.5c2.3-40.2,13.3-79.8,32-115.5c-61.2,0-115.3-44.7-144.3-98.5c-29.1-53.8-37.9-115.9-46.3-176.5
				c-15.1-109.4-30.2-218.9-45.3-328.3c44.6,69.2,96.5,133.6,154.6,191.9c-93.7-316-69.1-665.6,67.8-965.4
				c100.2,217.1,160.7,452.5,177.5,691.1c-16.4-341.2-31.5-692.2,81-1014.7c98.7,280.6,89.4,586.1,79,883.4
				c54.2-309.8,210.6-600.8,439.1-816.8c-56.5,316.9-123.1,641.8-301,910c154.6-108.3,338.7-174.3,526.9-188.8
				c-97.3,201.5-263.3,368.9-463.9,468c144-53.4,296.1-84.8,449.4-92.9c-169.7,213.4-416.7,364-684.1,417.2
				C279.7,5244.1,400,5267.5,515,5306.5"/>
			<path class="st14" d="M-3.3,5229.2c27.5,6.7,55.1,13.4,82.6,20.1c-83.5-16.6-180.1,27.2-250.2-21.2
				c-37.2-25.7-55-70.7-72.9-112.3c41.8,21.8,87.1,36.8,133.6,44.3c-41.3-179.6-59.9-364.4-55-548.6
				c18.3,78.3,65.4,149.5,130.2,197.1c27.1,19.9,60.3,40.6,63.7,74.1c29.3-114.3,58.5-228.6,87.8-342.9
				c2.3,67.2,22,133.8,56.6,191.5c41.2-64.5,78.4-131.5,111.5-200.5c-9,85.3-23.3,170-42.6,253.6c55.7-20.4,111.4-40.9,167-61.3
				c-54.1,70.8-117.1,135-186.8,190.5c63.6,3.5,127.1,7,190.7,10.4c10.6,16.5-10.5,34.9-28.2,43.2
				c-116.3,54.6-232.5,109.2-348.8,163.8c41.6,2.2,83.2,4.4,124.7,6.6C109.3,5173.9,54.3,5204.5-3.3,5229.2"/>
			<path class="st13" d="M119.5,4908.7c29.9-17.3,65.1-25.2,99.5-22.4c-34.3,37.6-73.6,70.5-116.5,97.7c36.4-1.7,72.8-3.4,109.1-5.1
				c-43.3,24.2-86.5,48.3-129.7,72.5c-51.8,29-106,60.1-136.8,110.9c-3.7-70.1-7.3-140.1-11-210.2c15.9,34.1,33.8,67.2,53.6,99.2
				c6.7-56.3,18.2-112.1,34.4-166.5c6.8,33.9,13.6,67.7,20.4,101.6c35.6-71.9,65.7-146.6,90-223
				C137.2,4812,132.8,4861.6,119.5,4908.7"/>
			<path class="st14" d="M3744.6,2943.8c-0.7,23.4,12.7,45.4,30.5,60.5c17.8,15.1,39.8,24.3,61.6,32.8c-20.4,11.7-50.3-3.6-67.8,12
				c-12,10.6-10.3,31.2,0.2,43.3c10.5,12.1,26.9,17.2,42.8,19.2c52,6.3,102.8-15.3,150.7-36.4c-14.5,6.4-29.7,13.2-39.5,25.7
				c-9.9,12.5-12.3,32.3-1.1,43.5c9.6,9.5,24.9,9.5,38.3,7.9c39.2-4.9,77.3-19,110.3-40.8c-15.1-1.9-19.5,23.7-7.3,32.8
				c12.2,9.1,29.3,6,44.1,2.5c33.3-7.9,66.6-15.7,99.9-23.6c-17.3-48.3-41.5-94.1-71.8-135.5c-18.4-25.1-45.2-51-75.8-45.2
				c-8.3,27.6-11.8,56.8-10,85.6c-12.7-1.3-19.5-15.1-24.5-26.8c-10.5-24.4-23.4-48.6-43.7-65.8c-20.3-17.2-49.3-26-74.2-16.5
				c-1.3,26.6,3.3,53.5,13.6,78.2C3886,2939.7,3805.5,2915.3,3744.6,2943.8"/>
		</g>
	</g>
</g>
</svg>
